<svg width="368" height="253" viewBox="0 0 368 253" fill="none" xmlns="http://www.w3.org/2000/svg">
<path d="M12.44 235.69C12.5 236.037 12.5267 236.32 12.52 236.54V247H11.4V232.6H12.47L17.96 244.47C18.0667 244.69 18.1433 244.92 18.19 245.16C18.2367 245.393 18.26 245.66 18.26 245.96H18.49C18.4967 245.633 18.52 245.353 18.56 245.12C18.6 244.887 18.67 244.667 18.77 244.46L24.21 232.6H25.32V246.98H24.19V236.72C24.19 236.28 24.21 235.913 24.25 235.62C24.2967 235.32 24.38 234.933 24.5 234.46L24.27 234.42C24.1767 234.887 24.1033 235.223 24.05 235.43C23.9967 235.63 23.9067 235.87 23.78 236.15L18.83 247H17.89L13.12 236.55C12.9667 236.223 12.8467 235.92 12.76 235.64C12.68 235.36 12.5967 235.01 12.51 234.59L12.21 234.65C12.31 234.997 12.3867 235.343 12.44 235.69ZM34.4288 246.71C33.8288 247.07 33.1088 247.25 32.2688 247.25C31.6754 247.25 31.1421 247.163 30.6688 246.99C30.2021 246.817 29.7954 246.573 29.4488 246.26C29.1021 245.94 28.8154 245.567 28.5888 245.14C28.3621 244.707 28.1921 244.233 28.0788 243.72C27.9721 243.207 27.9188 242.67 27.9188 242.11V236.2H29.0788V241.82C29.0788 242.5 29.1454 243.107 29.2788 243.64C29.4188 244.173 29.6254 244.627 29.8988 245C30.1788 245.373 30.5254 245.657 30.9388 245.85C31.3588 246.043 31.8521 246.14 32.4188 246.14C33.0054 246.14 33.5121 246.04 33.9388 245.84C34.3721 245.633 34.7288 245.347 35.0088 244.98C35.2888 244.613 35.4954 244.18 35.6288 243.68C35.7621 243.173 35.8288 242.623 35.8288 242.03L36.5288 242.14C36.5288 243.307 36.3288 244.27 35.9288 245.03C35.5354 245.783 35.0354 246.343 34.4288 246.71ZM35.8288 244.93V236.2H36.9888V247H35.9388V246.08C35.9388 245.72 36.0354 245.337 36.2288 244.93H35.8288ZM46.8289 246.43C46.0889 246.997 45.0689 247.28 43.7689 247.28C42.5222 247.28 41.4922 247.017 40.6789 246.49C39.8722 245.963 39.3689 245.207 39.1689 244.22L40.3589 244.09C40.5256 244.73 40.9189 245.24 41.5389 245.62C42.1589 246 42.9189 246.19 43.8189 246.19C44.7189 246.19 45.4289 246 45.9489 245.62C46.4756 245.24 46.7389 244.72 46.7389 244.06C46.7389 243.7 46.6556 243.407 46.4889 243.18C46.3289 242.947 46.0089 242.733 45.5289 242.54C45.0489 242.347 44.3356 242.12 43.3889 241.86C42.3889 241.593 41.6056 241.327 41.0389 241.06C40.4789 240.793 40.0822 240.49 39.8489 240.15C39.6222 239.81 39.5089 239.393 39.5089 238.9C39.5089 238.307 39.6789 237.783 40.0189 237.33C40.3589 236.877 40.8322 236.527 41.4389 236.28C42.0522 236.027 42.7589 235.9 43.5589 235.9C44.3589 235.9 45.0789 236.033 45.7189 236.3C46.3589 236.56 46.8756 236.927 47.2689 237.4C47.6622 237.867 47.8922 238.44 47.9589 239.12L46.7689 239.25C46.6556 238.557 46.3056 238.01 45.7189 237.61C45.1389 237.203 44.4056 236.997 43.5189 236.99C42.6856 236.97 42.0056 237.133 41.4789 237.48C40.9522 237.827 40.6889 238.28 40.6889 238.84C40.6889 239.153 40.7789 239.423 40.9589 239.65C41.1456 239.877 41.4722 240.083 41.9389 240.27C42.4056 240.457 43.0656 240.657 43.9189 240.87C44.9589 241.137 45.7689 241.41 46.3489 241.69C46.9356 241.97 47.3489 242.3 47.5889 242.68C47.8289 243.053 47.9489 243.517 47.9489 244.07C47.9489 245.07 47.5756 245.857 46.8289 246.43ZM57.2595 246.57C56.4995 247.057 55.6062 247.3 54.5795 247.3C53.4995 247.3 52.5895 247.06 51.8495 246.58C51.1095 246.093 50.5495 245.423 50.1695 244.57C49.7895 243.71 49.5895 242.72 49.5695 241.6C49.5895 240.453 49.7929 239.453 50.1795 238.6C50.5662 237.747 51.1295 237.083 51.8695 236.61C52.6095 236.137 53.5162 235.9 54.5895 235.9C55.6362 235.9 56.5595 236.16 57.3595 236.68C58.1595 237.193 58.7095 237.917 59.0095 238.85L57.8895 239.14C57.6162 238.467 57.1862 237.947 56.5995 237.58C56.0129 237.207 55.3395 237.02 54.5795 237.02C53.7262 237.02 53.0229 237.217 52.4695 237.61C51.9162 237.997 51.5029 238.533 51.2295 239.22C50.9562 239.907 50.8129 240.7 50.7995 241.6C50.8195 242.98 51.1429 244.09 51.7695 244.93C52.4029 245.763 53.3395 246.18 54.5795 246.18C55.3462 246.18 56.0095 246.003 56.5695 245.65C57.1362 245.297 57.5695 244.783 57.8695 244.11L59.0095 244.41C58.6095 245.363 58.0262 246.083 57.2595 246.57ZM62.1641 232.3V247H61.0141V232.3H62.1641ZM72.4495 246.52C71.6162 247.04 70.6729 247.3 69.6195 247.3C68.5862 247.3 67.6929 247.07 66.9395 246.61C66.1862 246.143 65.6029 245.487 65.1895 244.64C64.7762 243.787 64.5695 242.78 64.5695 241.62C64.5695 240.44 64.7729 239.423 65.1795 238.57C65.5929 237.71 66.1729 237.05 66.9195 236.59C67.6729 236.13 68.5662 235.9 69.5995 235.9C70.6462 235.9 71.5395 236.14 72.2795 236.62C73.0262 237.093 73.5929 237.78 73.9795 238.68C74.3729 239.58 74.5595 240.663 74.5395 241.93H73.3395V241.53C73.3062 240.05 72.9729 238.923 72.3395 238.15C71.7062 237.377 70.7995 236.99 69.6195 236.99C68.3995 236.99 67.4562 237.393 66.7895 238.2C66.1295 239 65.7995 240.133 65.7995 241.6C65.7995 243.053 66.1295 244.18 66.7895 244.98C67.4562 245.78 68.3929 246.18 69.5995 246.18C70.4329 246.18 71.1595 245.987 71.7795 245.6C72.4062 245.207 72.9029 244.647 73.2695 243.92L74.3295 244.25C73.9162 245.237 73.2895 245.993 72.4495 246.52ZM73.8895 240.89V241.93H65.3595V240.89H65.6995L65.6895 241.46H66.0795C66.0929 241.28 66.1695 241.14 66.3095 241.04C66.4562 240.94 66.6529 240.89 66.8995 240.89H73.8895ZM82.1875 240.54C82.2208 240.627 82.2375 240.723 82.2375 240.83V247H81.0875V232.6H82.2375V238.78C82.2375 239 82.1675 239.17 82.0275 239.29L82.1875 239.45C82.3275 239.31 82.5108 239.24 82.7375 239.24H90.0375C90.1775 239.233 90.2875 239.247 90.3675 239.28C90.4542 239.313 90.5408 239.37 90.6275 239.45L90.7775 239.28C90.6508 239.12 90.5842 238.933 90.5775 238.72V232.6H91.7375V247H90.5775V240.9C90.5775 240.753 90.5908 240.637 90.6175 240.55C90.6442 240.463 90.6975 240.383 90.7775 240.31L90.6175 240.14C90.5308 240.227 90.4475 240.287 90.3675 240.32C90.2875 240.347 90.1775 240.36 90.0375 240.36H82.7275C82.6275 240.36 82.5275 240.34 82.4275 240.3C82.3342 240.26 82.2542 240.21 82.1875 240.15L82.0375 240.33C82.1042 240.377 82.1542 240.447 82.1875 240.54ZM101.825 246.52C100.991 247.04 100.048 247.3 98.9945 247.3C97.9612 247.3 97.0679 247.07 96.3145 246.61C95.5612 246.143 94.9779 245.487 94.5645 244.64C94.1512 243.787 93.9445 242.78 93.9445 241.62C93.9445 240.44 94.1479 239.423 94.5545 238.57C94.9679 237.71 95.5479 237.05 96.2945 236.59C97.0479 236.13 97.9412 235.9 98.9745 235.9C100.021 235.9 100.915 236.14 101.655 236.62C102.401 237.093 102.968 237.78 103.355 238.68C103.748 239.58 103.935 240.663 103.915 241.93H102.715V241.53C102.681 240.05 102.348 238.923 101.715 238.15C101.081 237.377 100.175 236.99 98.9945 236.99C97.7745 236.99 96.8312 237.393 96.1645 238.2C95.5045 239 95.1745 240.133 95.1745 241.6C95.1745 243.053 95.5045 244.18 96.1645 244.98C96.8312 245.78 97.7679 246.18 98.9745 246.18C99.8079 246.18 100.535 245.987 101.155 245.6C101.781 245.207 102.278 244.647 102.645 243.92L103.705 244.25C103.291 245.237 102.665 245.993 101.825 246.52ZM103.265 240.89V241.93H94.7345V240.89H95.0745L95.0645 241.46H95.4545C95.4679 241.28 95.5445 241.14 95.6845 241.04C95.8312 240.94 96.0279 240.89 96.2745 240.89H103.265ZM111.831 246.52C111.091 247.04 110.165 247.3 109.051 247.3C108.218 247.3 107.525 247.153 106.971 246.86C106.425 246.567 106.015 246.18 105.741 245.7C105.468 245.213 105.331 244.687 105.331 244.12C105.331 243.507 105.458 242.993 105.711 242.58C105.965 242.16 106.305 241.82 106.731 241.56C107.158 241.293 107.635 241.097 108.161 240.97C108.808 240.823 109.478 240.747 110.171 240.74C110.871 240.733 111.515 240.73 112.101 240.73C112.695 240.73 113.191 240.73 113.591 240.73L113.161 240.86C113.195 239.433 112.978 238.437 112.511 237.87C112.045 237.297 111.228 237.01 110.061 237.01C109.241 237.01 108.565 237.197 108.031 237.57C107.505 237.937 107.151 238.503 106.971 239.27L105.741 239.07C105.941 238.017 106.425 237.227 107.191 236.7C107.965 236.167 108.935 235.9 110.101 235.9C111.095 235.9 111.928 236.093 112.601 236.48C113.281 236.867 113.755 237.41 114.021 238.11C114.135 238.397 114.211 238.733 114.251 239.12C114.291 239.5 114.311 239.883 114.311 240.27V247H113.261V246.48C113.261 246.067 113.301 245.71 113.381 245.41C113.461 245.103 113.571 244.717 113.711 244.25L113.461 244.22C113.115 245.233 112.571 246 111.831 246.52ZM107.571 245.92C107.951 246.133 108.465 246.24 109.111 246.24C109.845 246.24 110.488 246.11 111.041 245.85C111.595 245.583 112.041 245.213 112.381 244.74C112.728 244.26 112.948 243.697 113.041 243.05C113.115 242.69 113.151 242.393 113.151 242.16C113.158 241.927 113.161 241.713 113.161 241.52L113.671 241.7C113.231 241.693 112.708 241.693 112.101 241.7C111.495 241.7 110.875 241.71 110.241 241.73C109.615 241.743 109.048 241.82 108.541 241.96C108.228 242.047 107.915 242.177 107.601 242.35C107.288 242.517 107.028 242.747 106.821 243.04C106.615 243.327 106.511 243.69 106.511 244.13C106.511 244.457 106.591 244.783 106.751 245.11C106.918 245.437 107.191 245.707 107.571 245.92ZM118.258 232.3V247H117.108V232.3H118.258ZM126.993 245.97V247.02C126.42 247.12 125.853 247.157 125.293 247.13C124.733 247.103 124.233 246.98 123.793 246.76C123.36 246.533 123.033 246.19 122.813 245.73C122.633 245.35 122.533 244.967 122.513 244.58C122.493 244.193 122.483 243.75 122.483 243.25V233.2H123.643V237.25H122.943V237.53C123.197 237.53 123.377 237.58 123.483 237.68C123.59 237.773 123.643 237.97 123.643 238.27V243.23C123.643 243.683 123.647 244.06 123.653 244.36C123.667 244.653 123.737 244.923 123.863 245.17C124.103 245.637 124.483 245.917 125.003 246.01C125.523 246.097 126.187 246.083 126.993 245.97ZM126.993 236.2V237.32H120.063V236.2H126.993ZM138.126 241.09V247H136.966V241.38C136.966 240.693 136.9 240.083 136.766 239.55C136.633 239.017 136.426 238.567 136.146 238.2C135.866 237.827 135.516 237.543 135.096 237.35C134.683 237.157 134.193 237.06 133.626 237.06C133.04 237.06 132.53 237.163 132.096 237.37C131.67 237.57 131.316 237.853 131.036 238.22C130.763 238.587 130.556 239.023 130.416 239.53C130.283 240.03 130.216 240.577 130.216 241.17L129.626 241.06C129.893 239.6 130.166 238.553 130.446 237.92C130.733 237.28 131.15 236.793 131.696 236.46C132.243 236.12 132.936 235.95 133.776 235.95C134.37 235.95 134.9 236.037 135.366 236.21C135.84 236.383 136.25 236.63 136.596 236.95C136.943 237.263 137.23 237.637 137.456 238.07C137.683 238.497 137.85 238.967 137.956 239.48C138.07 239.987 138.126 240.523 138.126 241.09ZM130.216 239.34V247H129.056V232.6H130.106V237.57C130.106 237.883 130.083 238.163 130.036 238.41C129.99 238.65 129.91 238.96 129.796 239.34H130.216Z" fill="white"/>
<path d="M80.33 161H74.4V146.6H79.91C80.6567 146.6 81.3267 146.76 81.92 147.08C82.52 147.393 82.99 147.823 83.33 148.37C83.6767 148.917 83.85 149.533 83.85 150.22C83.85 150.987 83.6367 151.68 83.21 152.3C82.7833 152.92 82.2167 153.353 81.51 153.6L81.47 153.12C82.4167 153.407 83.1667 153.887 83.72 154.56C84.28 155.227 84.56 156.053 84.56 157.04C84.56 157.867 84.3767 158.577 84.01 159.17C83.65 159.757 83.15 160.21 82.51 160.53C81.87 160.843 81.1433 161 80.33 161ZM75.47 159.74C75.4167 159.84 75.32 159.943 75.18 160.05L75.34 160.21C75.4533 160.097 75.5667 160.013 75.68 159.96C75.8 159.9 75.9367 159.87 76.09 159.87H79.95C80.59 159.87 81.1633 159.76 81.67 159.54C82.1833 159.32 82.5867 159.003 82.88 158.59C83.18 158.177 83.33 157.677 83.33 157.09C83.33 156.51 83.1933 155.987 82.92 155.52C82.6533 155.047 82.29 154.673 81.83 154.4C81.37 154.12 80.8533 153.98 80.28 153.98H76.09C75.9167 153.98 75.7833 153.96 75.69 153.92C75.5967 153.873 75.5033 153.8 75.41 153.7L75.26 153.87C75.4667 154.003 75.5667 154.213 75.56 154.5V159.31C75.56 159.49 75.53 159.633 75.47 159.74ZM75.48 152.67C75.4333 152.743 75.3533 152.83 75.24 152.93L75.39 153.09C75.4767 153.01 75.5667 152.953 75.66 152.92C75.76 152.88 75.9033 152.86 76.09 152.86L79.9 152.87C80.4067 152.87 80.8667 152.753 81.28 152.52C81.6933 152.287 82.0233 151.967 82.27 151.56C82.5167 151.153 82.64 150.693 82.64 150.18C82.64 149.44 82.38 148.843 81.86 148.39C81.34 147.937 80.6867 147.71 79.9 147.71H76.09C75.95 147.703 75.8433 147.68 75.77 147.64C75.6967 147.6 75.6133 147.533 75.52 147.44L75.35 147.61C75.4367 147.697 75.4933 147.773 75.52 147.84C75.5467 147.9 75.56 148 75.56 148.14V152.32C75.56 152.473 75.5333 152.59 75.48 152.67ZM87.8984 146.55V148.02H86.7484V146.55H87.8984ZM87.8984 150.2V161H86.7484V150.2H87.8984ZM98.0539 160.58C97.3006 161.06 96.3939 161.3 95.3339 161.3C94.2606 161.3 93.3506 161.057 92.6039 160.57C91.8572 160.083 91.2872 159.41 90.8939 158.55C90.5006 157.69 90.3039 156.7 90.3039 155.58C90.3039 154.447 90.5039 153.453 90.9039 152.6C91.3039 151.747 91.8772 151.083 92.6239 150.61C93.3772 150.137 94.2806 149.9 95.3339 149.9C96.4072 149.9 97.3172 150.143 98.0639 150.63C98.8172 151.11 99.3872 151.777 99.7739 152.63C100.167 153.483 100.364 154.467 100.364 155.58C100.364 156.72 100.167 157.72 99.7739 158.58C99.3806 159.433 98.8072 160.1 98.0539 160.58ZM92.4939 158.92C93.1406 159.76 94.0872 160.18 95.3339 160.18C96.6139 160.18 97.5672 159.753 98.1939 158.9C98.8206 158.047 99.1339 156.94 99.1339 155.58C99.1339 154.193 98.8172 153.087 98.1839 152.26C97.5506 151.433 96.6006 151.02 95.3339 151.02C94.4739 151.02 93.7639 151.217 93.2039 151.61C92.6439 151.997 92.2239 152.533 91.9439 153.22C91.6706 153.9 91.5339 154.687 91.5339 155.58C91.5339 156.967 91.8539 158.08 92.4939 158.92ZM103.914 146.3V161H102.764V146.3H103.914ZM114.07 160.58C113.316 161.06 112.41 161.3 111.35 161.3C110.276 161.3 109.366 161.057 108.62 160.57C107.873 160.083 107.303 159.41 106.91 158.55C106.516 157.69 106.32 156.7 106.32 155.58C106.32 154.447 106.52 153.453 106.92 152.6C107.32 151.747 107.893 151.083 108.64 150.61C109.393 150.137 110.296 149.9 111.35 149.9C112.423 149.9 113.333 150.143 114.08 150.63C114.833 151.11 115.403 151.777 115.79 152.63C116.183 153.483 116.38 154.467 116.38 155.58C116.38 156.72 116.183 157.72 115.79 158.58C115.396 159.433 114.823 160.1 114.07 160.58ZM108.51 158.92C109.156 159.76 110.103 160.18 111.35 160.18C112.63 160.18 113.583 159.753 114.21 158.9C114.836 158.047 115.15 156.94 115.15 155.58C115.15 154.193 114.833 153.087 114.2 152.26C113.566 151.433 112.616 151.02 111.35 151.02C110.49 151.02 109.78 151.217 109.22 151.61C108.66 151.997 108.24 152.533 107.96 153.22C107.686 153.9 107.55 154.687 107.55 155.58C107.55 156.967 107.87 158.08 108.51 158.92ZM120.02 155.53C119.353 154.97 119.02 154.153 119.02 153.08C119.02 152.08 119.353 151.27 120.02 150.65C120.686 150.023 121.64 149.71 122.88 149.71C124.14 149.71 125.1 150.023 125.76 150.65C126.42 151.27 126.75 152.11 126.75 153.17C126.75 154.183 126.42 154.97 125.76 155.53C125.1 156.09 124.14 156.37 122.88 156.37C121.64 156.37 120.686 156.09 120.02 155.53ZM120.88 151.3C120.386 151.713 120.14 152.313 120.14 153.1C120.14 153.853 120.386 154.443 120.88 154.87C121.38 155.29 122.043 155.5 122.87 155.5C123.763 155.5 124.446 155.29 124.92 154.87C125.393 154.443 125.63 153.89 125.63 153.21C125.63 152.35 125.393 151.713 124.92 151.3C124.446 150.88 123.763 150.67 122.87 150.67C122.043 150.67 121.38 150.88 120.88 151.3ZM118.85 164.56C117.93 163.853 117.443 162.827 117.39 161.48C117.356 160.547 117.603 159.757 118.13 159.11C118.83 158.257 119.756 157.913 120.91 158.08L120.97 157.88L120.34 157.57C120.94 157.33 121.786 157.21 122.88 157.21C124.666 157.21 126.03 157.603 126.97 158.39C127.91 159.177 128.38 160.24 128.38 161.58C128.38 162.86 127.91 163.853 126.97 164.56C126.03 165.273 124.666 165.63 122.88 165.63C121.113 165.63 119.77 165.273 118.85 164.56ZM119.69 159.03C118.923 159.583 118.54 160.39 118.54 161.45C118.54 162.43 118.923 163.21 119.69 163.79C120.456 164.37 121.52 164.66 122.88 164.66C124.313 164.66 125.396 164.37 126.13 163.79C126.863 163.21 127.23 162.48 127.23 161.6C127.23 160.44 126.863 159.583 126.13 159.03C125.396 158.477 124.313 158.2 122.88 158.2C121.52 158.2 120.456 158.477 119.69 159.03ZM122.88 155.57V156.37H121.69C121.463 156.37 121.266 156.403 121.1 156.47C120.94 156.537 120.86 156.643 120.86 156.79C120.86 156.937 120.943 157.043 121.11 157.11C121.276 157.177 121.47 157.21 121.69 157.21H122.88V158.06H122.43C120.723 158.06 119.87 157.637 119.87 156.79C119.87 156.45 119.98 156.19 120.2 156.01C120.42 155.83 120.71 155.713 121.07 155.66C121.436 155.6 121.89 155.57 122.43 155.57H122.88ZM126.17 150.97L126.42 151.56L125.49 150.55L125.69 150.32C125.056 149.46 124.893 148.813 125.2 148.38C125.506 147.947 126.073 147.73 126.9 147.73H128.24V148.73H127C126.366 148.73 125.966 148.863 125.8 149.13C125.64 149.39 125.763 150.003 126.17 150.97ZM131.434 146.55V148.02H130.284V146.55H131.434ZM131.434 150.2V161H130.284V150.2H131.434ZM141.529 160.57C140.769 161.057 139.876 161.3 138.849 161.3C137.769 161.3 136.859 161.06 136.119 160.58C135.379 160.093 134.819 159.423 134.439 158.57C134.059 157.71 133.859 156.72 133.839 155.6C133.859 154.453 134.062 153.453 134.449 152.6C134.836 151.747 135.399 151.083 136.139 150.61C136.879 150.137 137.786 149.9 138.859 149.9C139.906 149.9 140.829 150.16 141.629 150.68C142.429 151.193 142.979 151.917 143.279 152.85L142.159 153.14C141.886 152.467 141.456 151.947 140.869 151.58C140.282 151.207 139.609 151.02 138.849 151.02C137.996 151.02 137.292 151.217 136.739 151.61C136.186 151.997 135.772 152.533 135.499 153.22C135.226 153.907 135.082 154.7 135.069 155.6C135.089 156.98 135.412 158.09 136.039 158.93C136.672 159.763 137.609 160.18 138.849 160.18C139.616 160.18 140.279 160.003 140.839 159.65C141.406 159.297 141.839 158.783 142.139 158.11L143.279 158.41C142.879 159.363 142.296 160.083 141.529 160.57ZM151.277 160.52C150.537 161.04 149.61 161.3 148.497 161.3C147.663 161.3 146.97 161.153 146.417 160.86C145.87 160.567 145.46 160.18 145.187 159.7C144.913 159.213 144.777 158.687 144.777 158.12C144.777 157.507 144.903 156.993 145.157 156.58C145.41 156.16 145.75 155.82 146.177 155.56C146.603 155.293 147.08 155.097 147.607 154.97C148.253 154.823 148.923 154.747 149.617 154.74C150.317 154.733 150.96 154.73 151.547 154.73C152.14 154.73 152.637 154.73 153.037 154.73L152.607 154.86C152.64 153.433 152.423 152.437 151.957 151.87C151.49 151.297 150.673 151.01 149.507 151.01C148.687 151.01 148.01 151.197 147.477 151.57C146.95 151.937 146.597 152.503 146.417 153.27L145.187 153.07C145.387 152.017 145.87 151.227 146.637 150.7C147.41 150.167 148.38 149.9 149.547 149.9C150.54 149.9 151.373 150.093 152.047 150.48C152.727 150.867 153.2 151.41 153.467 152.11C153.58 152.397 153.657 152.733 153.697 153.12C153.737 153.5 153.757 153.883 153.757 154.27V161H152.707V160.48C152.707 160.067 152.747 159.71 152.827 159.41C152.907 159.103 153.017 158.717 153.157 158.25L152.907 158.22C152.56 159.233 152.017 160 151.277 160.52ZM147.017 159.92C147.397 160.133 147.91 160.24 148.557 160.24C149.29 160.24 149.933 160.11 150.487 159.85C151.04 159.583 151.487 159.213 151.827 158.74C152.173 158.26 152.393 157.697 152.487 157.05C152.56 156.69 152.597 156.393 152.597 156.16C152.603 155.927 152.607 155.713 152.607 155.52L153.117 155.7C152.677 155.693 152.153 155.693 151.547 155.7C150.94 155.7 150.32 155.71 149.687 155.73C149.06 155.743 148.493 155.82 147.987 155.96C147.673 156.047 147.36 156.177 147.047 156.35C146.733 156.517 146.473 156.747 146.267 157.04C146.06 157.327 145.957 157.69 145.957 158.13C145.957 158.457 146.037 158.783 146.197 159.11C146.363 159.437 146.637 159.707 147.017 159.92ZM157.703 146.3V161H156.553V146.3H157.703ZM166.545 157.38L165.265 161H164.045L169.145 146.6H170.575L175.675 161H174.455L173.165 157.38H166.545ZM166.875 156.1C166.748 156.26 166.591 156.41 166.405 156.55L166.535 156.68C166.688 156.553 166.835 156.457 166.975 156.39C167.115 156.323 167.261 156.29 167.415 156.29H172.065C172.318 156.303 172.521 156.343 172.675 156.41C172.835 156.47 173.011 156.573 173.205 156.72L173.325 156.55C173.125 156.383 172.965 156.21 172.845 156.03C172.725 155.85 172.591 155.603 172.445 155.29L170.095 148.73C170.028 148.55 169.985 148.373 169.965 148.2C169.951 148.02 169.945 147.767 169.945 147.44H169.765C169.758 147.74 169.745 147.983 169.725 148.17C169.705 148.357 169.668 148.54 169.615 148.72L167.195 155.49C167.115 155.73 167.008 155.933 166.875 156.1ZM178.906 155.53C178.24 154.97 177.906 154.153 177.906 153.08C177.906 152.08 178.24 151.27 178.906 150.65C179.573 150.023 180.526 149.71 181.766 149.71C183.026 149.71 183.986 150.023 184.646 150.65C185.306 151.27 185.636 152.11 185.636 153.17C185.636 154.183 185.306 154.97 184.646 155.53C183.986 156.09 183.026 156.37 181.766 156.37C180.526 156.37 179.573 156.09 178.906 155.53ZM179.766 151.3C179.273 151.713 179.026 152.313 179.026 153.1C179.026 153.853 179.273 154.443 179.766 154.87C180.266 155.29 180.93 155.5 181.756 155.5C182.65 155.5 183.333 155.29 183.806 154.87C184.28 154.443 184.516 153.89 184.516 153.21C184.516 152.35 184.28 151.713 183.806 151.3C183.333 150.88 182.65 150.67 181.756 150.67C180.93 150.67 180.266 150.88 179.766 151.3ZM177.736 164.56C176.816 163.853 176.33 162.827 176.276 161.48C176.243 160.547 176.49 159.757 177.016 159.11C177.716 158.257 178.643 157.913 179.796 158.08L179.856 157.88L179.226 157.57C179.826 157.33 180.673 157.21 181.766 157.21C183.553 157.21 184.916 157.603 185.856 158.39C186.796 159.177 187.266 160.24 187.266 161.58C187.266 162.86 186.796 163.853 185.856 164.56C184.916 165.273 183.553 165.63 181.766 165.63C180 165.63 178.656 165.273 177.736 164.56ZM178.576 159.03C177.81 159.583 177.426 160.39 177.426 161.45C177.426 162.43 177.81 163.21 178.576 163.79C179.343 164.37 180.406 164.66 181.766 164.66C183.2 164.66 184.283 164.37 185.016 163.79C185.75 163.21 186.116 162.48 186.116 161.6C186.116 160.44 185.75 159.583 185.016 159.03C184.283 158.477 183.2 158.2 181.766 158.2C180.406 158.2 179.343 158.477 178.576 159.03ZM181.766 155.57V156.37H180.576C180.35 156.37 180.153 156.403 179.986 156.47C179.826 156.537 179.746 156.643 179.746 156.79C179.746 156.937 179.83 157.043 179.996 157.11C180.163 157.177 180.356 157.21 180.576 157.21H181.766V158.06H181.316C179.61 158.06 178.756 157.637 178.756 156.79C178.756 156.45 178.866 156.19 179.086 156.01C179.306 155.83 179.596 155.713 179.956 155.66C180.323 155.6 180.776 155.57 181.316 155.57H181.766ZM185.056 150.97L185.306 151.56L184.376 150.55L184.576 150.32C183.943 149.46 183.78 148.813 184.086 148.38C184.393 147.947 184.96 147.73 185.786 147.73H187.126V148.73H185.886C185.253 148.73 184.853 148.863 184.686 149.13C184.526 149.39 184.65 150.003 185.056 150.97ZM196.25 160.52C195.417 161.04 194.474 161.3 193.42 161.3C192.387 161.3 191.494 161.07 190.74 160.61C189.987 160.143 189.404 159.487 188.99 158.64C188.577 157.787 188.37 156.78 188.37 155.62C188.37 154.44 188.574 153.423 188.98 152.57C189.394 151.71 189.974 151.05 190.72 150.59C191.474 150.13 192.367 149.9 193.4 149.9C194.447 149.9 195.34 150.14 196.08 150.62C196.827 151.093 197.394 151.78 197.78 152.68C198.174 153.58 198.36 154.663 198.34 155.93H197.14V155.53C197.107 154.05 196.774 152.923 196.14 152.15C195.507 151.377 194.6 150.99 193.42 150.99C192.2 150.99 191.257 151.393 190.59 152.2C189.93 153 189.6 154.133 189.6 155.6C189.6 157.053 189.93 158.18 190.59 158.98C191.257 159.78 192.194 160.18 193.4 160.18C194.234 160.18 194.96 159.987 195.58 159.6C196.207 159.207 196.704 158.647 197.07 157.92L198.13 158.25C197.717 159.237 197.09 159.993 196.25 160.52ZM197.69 154.89V155.93H189.16V154.89H189.5L189.49 155.46H189.88C189.894 155.28 189.97 155.14 190.11 155.04C190.257 154.94 190.454 154.89 190.7 154.89H197.69Z" fill="white"/>
<path d="M160.36 92.01C159.733 92.2033 159.043 92.3 158.29 92.3C157.303 92.3 156.413 92.1367 155.62 91.81C154.833 91.4833 154.173 91.0167 153.64 90.41C153.113 89.8033 152.773 89.07 152.62 88.21L153.81 88.08C154.043 89.0333 154.567 89.79 155.38 90.35C156.2 90.9033 157.18 91.18 158.32 91.18C159.093 91.18 159.777 91.0567 160.37 90.81C160.963 90.5633 161.427 90.2167 161.76 89.77C162.093 89.3167 162.26 88.79 162.26 88.19C162.26 87.7567 162.18 87.3933 162.02 87.1C161.867 86.8067 161.667 86.5667 161.42 86.38C161.173 86.1867 160.91 86.03 160.63 85.91C160.35 85.79 160.087 85.6967 159.84 85.63L156.22 84.55C155.74 84.4033 155.31 84.2267 154.93 84.02C154.557 83.8133 154.24 83.57 153.98 83.29C153.727 83.01 153.53 82.6967 153.39 82.35C153.257 81.9967 153.19 81.6033 153.19 81.17C153.19 80.3967 153.397 79.72 153.81 79.14C154.223 78.56 154.79 78.11 155.51 77.79C156.237 77.4633 157.07 77.3 158.01 77.3C158.957 77.3067 159.807 77.48 160.56 77.82C161.32 78.1533 161.947 78.6367 162.44 79.27C162.933 79.9033 163.237 80.6767 163.35 81.59L162.16 81.72C162.073 81.0467 161.84 80.4633 161.46 79.97C161.08 79.4767 160.59 79.0967 159.99 78.83C159.39 78.5633 158.727 78.43 158 78.43C157.3 78.4233 156.68 78.54 156.14 78.78C155.607 79.02 155.187 79.3433 154.88 79.75C154.573 80.1567 154.42 80.6167 154.42 81.13C154.42 81.6567 154.563 82.08 154.85 82.4C155.143 82.72 155.5 82.97 155.92 83.15C156.347 83.33 156.753 83.4767 157.14 83.59L160.04 84.45C160.313 84.53 160.64 84.6433 161.02 84.79C161.4 84.9367 161.773 85.1467 162.14 85.42C162.507 85.6867 162.81 86.0433 163.05 86.49C163.297 86.93 163.42 87.4833 163.42 88.15C163.42 88.7967 163.297 89.3767 163.05 89.89C162.803 90.4033 162.45 90.84 161.99 91.2C161.53 91.5533 160.987 91.8233 160.36 92.01ZM171.181 90.97V92.02C170.607 92.12 170.041 92.1567 169.481 92.13C168.921 92.1033 168.421 91.98 167.981 91.76C167.547 91.5333 167.221 91.19 167.001 90.73C166.821 90.35 166.721 89.9667 166.701 89.58C166.681 89.1933 166.671 88.75 166.671 88.25V78.2H167.831V82.25H167.131V82.53C167.384 82.53 167.564 82.58 167.671 82.68C167.777 82.7733 167.831 82.97 167.831 83.27V88.23C167.831 88.6833 167.834 89.06 167.841 89.36C167.854 89.6533 167.924 89.9233 168.051 90.17C168.291 90.6367 168.671 90.9167 169.191 91.01C169.711 91.0967 170.374 91.0833 171.181 90.97ZM171.181 81.2V82.32H164.251V81.2H171.181ZM174.404 86.52V92H173.244V81.2H174.294V81.74C174.294 82.4733 174.184 83.1567 173.964 83.79H174.194C174.36 83.1633 174.514 82.69 174.654 82.37C174.794 82.0433 175.014 81.7667 175.314 81.54C175.62 81.3067 176.087 81.19 176.714 81.19H178.304V82.28L176.674 82.27C175.94 82.27 175.377 82.54 174.984 83.08C174.59 83.74 174.397 84.8867 174.404 86.52ZM187.282 91.52C186.448 92.04 185.505 92.3 184.452 92.3C183.418 92.3 182.525 92.07 181.772 91.61C181.018 91.1433 180.435 90.4867 180.022 89.64C179.608 88.7867 179.402 87.78 179.402 86.62C179.402 85.44 179.605 84.4233 180.012 83.57C180.425 82.71 181.005 82.05 181.752 81.59C182.505 81.13 183.398 80.9 184.432 80.9C185.478 80.9 186.372 81.14 187.112 81.62C187.858 82.0933 188.425 82.78 188.812 83.68C189.205 84.58 189.392 85.6633 189.372 86.93H188.172V86.53C188.138 85.05 187.805 83.9233 187.172 83.15C186.538 82.3767 185.632 81.99 184.452 81.99C183.232 81.99 182.288 82.3933 181.622 83.2C180.962 84 180.632 85.1333 180.632 86.6C180.632 88.0533 180.962 89.18 181.622 89.98C182.288 90.78 183.225 91.18 184.432 91.18C185.265 91.18 185.992 90.9867 186.612 90.6C187.238 90.2067 187.735 89.6467 188.102 88.92L189.162 89.25C188.748 90.2367 188.122 90.9933 187.282 91.52ZM188.722 85.89V86.93H180.192V85.89H180.532L180.522 86.46H180.912C180.925 86.28 181.002 86.14 181.142 86.04C181.288 85.94 181.485 85.89 181.732 85.89H188.722ZM200.361 86.09V92H199.201V86.38C199.201 85.6933 199.134 85.0833 199.001 84.55C198.867 84.0167 198.661 83.5667 198.381 83.2C198.101 82.8267 197.751 82.5433 197.331 82.35C196.917 82.1567 196.427 82.06 195.861 82.06C195.274 82.06 194.764 82.1633 194.331 82.37C193.904 82.57 193.551 82.8533 193.271 83.22C192.997 83.5867 192.791 84.0233 192.651 84.53C192.517 85.03 192.451 85.5767 192.451 86.17L191.781 86.06C191.781 84.8933 191.941 83.9333 192.261 83.18C192.581 82.42 193.074 81.86 193.741 81.5C194.414 81.1333 195.171 80.95 196.011 80.95C196.604 80.95 197.134 81.0367 197.601 81.21C198.074 81.3833 198.484 81.63 198.831 81.95C199.177 82.2633 199.464 82.6367 199.691 83.07C199.917 83.4967 200.084 83.9667 200.191 84.48C200.304 84.9867 200.361 85.5233 200.361 86.09ZM192.441 83.26V92H191.291V81.2H192.341V82.12C192.341 82.4933 192.241 82.8733 192.041 83.26H192.441ZM204.391 86.53C203.724 85.97 203.391 85.1533 203.391 84.08C203.391 83.08 203.724 82.27 204.391 81.65C205.057 81.0233 206.011 80.71 207.251 80.71C208.511 80.71 209.471 81.0233 210.131 81.65C210.791 82.27 211.121 83.11 211.121 84.17C211.121 85.1833 210.791 85.97 210.131 86.53C209.471 87.09 208.511 87.37 207.251 87.37C206.011 87.37 205.057 87.09 204.391 86.53ZM205.251 82.3C204.757 82.7133 204.511 83.3133 204.511 84.1C204.511 84.8533 204.757 85.4433 205.251 85.87C205.751 86.29 206.414 86.5 207.241 86.5C208.134 86.5 208.817 86.29 209.291 85.87C209.764 85.4433 210.001 84.89 210.001 84.21C210.001 83.35 209.764 82.7133 209.291 82.3C208.817 81.88 208.134 81.67 207.241 81.67C206.414 81.67 205.751 81.88 205.251 82.3ZM203.221 95.56C202.301 94.8533 201.814 93.8267 201.761 92.48C201.727 91.5467 201.974 90.7567 202.501 90.11C203.201 89.2567 204.127 88.9133 205.281 89.08L205.341 88.88L204.711 88.57C205.311 88.33 206.157 88.21 207.251 88.21C209.037 88.21 210.401 88.6033 211.341 89.39C212.281 90.1767 212.751 91.24 212.751 92.58C212.751 93.86 212.281 94.8533 211.341 95.56C210.401 96.2733 209.037 96.63 207.251 96.63C205.484 96.63 204.141 96.2733 203.221 95.56ZM204.061 90.03C203.294 90.5833 202.911 91.39 202.911 92.45C202.911 93.43 203.294 94.21 204.061 94.79C204.827 95.37 205.891 95.66 207.251 95.66C208.684 95.66 209.767 95.37 210.501 94.79C211.234 94.21 211.601 93.48 211.601 92.6C211.601 91.44 211.234 90.5833 210.501 90.03C209.767 89.4767 208.684 89.2 207.251 89.2C205.891 89.2 204.827 89.4767 204.061 90.03ZM207.251 86.57V87.37H206.061C205.834 87.37 205.637 87.4033 205.471 87.47C205.311 87.5367 205.231 87.6433 205.231 87.79C205.231 87.9367 205.314 88.0433 205.481 88.11C205.647 88.1767 205.841 88.21 206.061 88.21H207.251V89.06H206.801C205.094 89.06 204.241 88.6367 204.241 87.79C204.241 87.45 204.351 87.19 204.571 87.01C204.791 86.83 205.081 86.7133 205.441 86.66C205.807 86.6 206.261 86.57 206.801 86.57H207.251ZM210.541 81.97L210.791 82.56L209.861 81.55L210.061 81.32C209.427 80.46 209.264 79.8133 209.571 79.38C209.877 78.9467 210.444 78.73 211.271 78.73H212.611V79.73H211.371C210.737 79.73 210.337 79.8633 210.171 80.13C210.011 80.39 210.134 81.0033 210.541 81.97ZM220.185 90.97V92.02C219.611 92.12 219.045 92.1567 218.485 92.13C217.925 92.1033 217.425 91.98 216.985 91.76C216.551 91.5333 216.225 91.19 216.005 90.73C215.825 90.35 215.725 89.9667 215.705 89.58C215.685 89.1933 215.675 88.75 215.675 88.25V78.2H216.835V82.25H216.135V82.53C216.388 82.53 216.568 82.58 216.675 82.68C216.781 82.7733 216.835 82.97 216.835 83.27V88.23C216.835 88.6833 216.838 89.06 216.845 89.36C216.858 89.6533 216.928 89.9233 217.055 90.17C217.295 90.6367 217.675 90.9167 218.195 91.01C218.715 91.0967 219.378 91.0833 220.185 90.97ZM220.185 81.2V82.32H213.255V81.2H220.185ZM231.318 86.09V92H230.158V86.38C230.158 85.6933 230.091 85.0833 229.958 84.55C229.824 84.0167 229.618 83.5667 229.338 83.2C229.058 82.8267 228.708 82.5433 228.288 82.35C227.874 82.1567 227.384 82.06 226.818 82.06C226.231 82.06 225.721 82.1633 225.288 82.37C224.861 82.57 224.508 82.8533 224.228 83.22C223.954 83.5867 223.748 84.0233 223.608 84.53C223.474 85.03 223.408 85.5767 223.408 86.17L222.818 86.06C223.084 84.6 223.358 83.5533 223.638 82.92C223.924 82.28 224.341 81.7933 224.888 81.46C225.434 81.12 226.128 80.95 226.968 80.95C227.561 80.95 228.091 81.0367 228.558 81.21C229.031 81.3833 229.441 81.63 229.788 81.95C230.134 82.2633 230.421 82.6367 230.648 83.07C230.874 83.4967 231.041 83.9667 231.148 84.48C231.261 84.9867 231.318 85.5233 231.318 86.09ZM223.408 84.34V92H222.248V77.6H223.298V82.57C223.298 82.8833 223.274 83.1633 223.228 83.41C223.181 83.65 223.101 83.96 222.988 84.34H223.408Z" fill="white"/>
<path d="M285.44 35.63C285.513 35.7567 285.55 35.92 285.55 36.12V41H284.4V26.6H289.83C289.97 26.6 290.12 26.6067 290.28 26.62C290.447 26.6267 290.62 26.6467 290.8 26.68C291.52 26.7933 292.137 27.0433 292.65 27.43C293.163 27.8167 293.557 28.3133 293.83 28.92C294.11 29.5267 294.25 30.1967 294.25 30.93C294.25 31.9433 294.043 32.7867 293.63 33.46C293.217 34.1267 292.53 34.5167 291.57 34.63L291.58 35.38H286.06C285.813 35.38 285.647 35.35 285.56 35.29C285.473 35.23 285.377 35.1567 285.27 35.07L285.13 35.25C285.27 35.37 285.373 35.4967 285.44 35.63ZM288.43 35.38V34.81C289.863 34.81 290.85 34.81 291.39 34.81C291.93 34.81 292.397 34.8367 292.79 34.89C293.183 34.9433 293.55 35.2133 293.89 35.7C294.13 36.0333 294.25 36.5467 294.25 37.24C294.25 37.9333 294.25 38.4233 294.25 38.71V41H293.1V38.7C293.1 37.8733 293.087 37.2733 293.06 36.9C293.033 36.5267 292.913 36.22 292.7 35.98C292.353 35.58 291.853 35.38 291.2 35.38C290.553 35.38 289.63 35.38 288.43 35.38ZM285.44 34.16C285.367 34.2733 285.26 34.3933 285.12 34.52L285.28 34.68C285.533 34.4 285.793 34.26 286.06 34.26H289.81C289.93 34.26 290.067 34.2533 290.22 34.24C290.38 34.2267 290.54 34.2067 290.7 34.18C291.22 34.0733 291.653 33.8633 292 33.55C292.347 33.23 292.607 32.8467 292.78 32.4C292.953 31.9533 293.04 31.4833 293.04 30.99C293.04 30.4967 292.953 30.03 292.78 29.59C292.607 29.1433 292.347 28.76 292 28.44C291.653 28.12 291.22 27.91 290.7 27.81C290.54 27.77 290.38 27.7467 290.22 27.74C290.067 27.7267 289.93 27.72 289.81 27.72H286.16C285.967 27.72 285.817 27.6933 285.71 27.64C285.61 27.58 285.487 27.4733 285.34 27.32L285.18 27.48C285.313 27.6133 285.407 27.74 285.46 27.86C285.52 27.98 285.55 28.1433 285.55 28.35V33.77C285.55 33.9167 285.513 34.0467 285.44 34.16ZM304.102 40.52C303.269 41.04 302.325 41.3 301.272 41.3C300.239 41.3 299.345 41.07 298.592 40.61C297.839 40.1433 297.255 39.4867 296.842 38.64C296.429 37.7867 296.222 36.78 296.222 35.62C296.222 34.44 296.425 33.4233 296.832 32.57C297.245 31.71 297.825 31.05 298.572 30.59C299.325 30.13 300.219 29.9 301.252 29.9C302.299 29.9 303.192 30.14 303.932 30.62C304.679 31.0933 305.245 31.78 305.632 32.68C306.025 33.58 306.212 34.6633 306.192 35.93H304.992V35.53C304.959 34.05 304.625 32.9233 303.992 32.15C303.359 31.3767 302.452 30.99 301.272 30.99C300.052 30.99 299.109 31.3933 298.442 32.2C297.782 33 297.452 34.1333 297.452 35.6C297.452 37.0533 297.782 38.18 298.442 38.98C299.109 39.78 300.045 40.18 301.252 40.18C302.085 40.18 302.812 39.9867 303.432 39.6C304.059 39.2067 304.555 38.6467 304.922 37.92L305.982 38.25C305.569 39.2367 304.942 39.9933 304.102 40.52ZM305.542 34.89V35.93H297.012V34.89H297.352L297.342 35.46H297.732C297.745 35.28 297.822 35.14 297.962 35.04C298.109 34.94 298.305 34.89 298.552 34.89H305.542ZM315.494 40.57C314.734 41.0567 313.841 41.3 312.814 41.3C311.734 41.3 310.824 41.06 310.084 40.58C309.344 40.0933 308.784 39.4233 308.404 38.57C308.024 37.71 307.824 36.72 307.804 35.6C307.824 34.4533 308.027 33.4533 308.414 32.6C308.801 31.7467 309.364 31.0833 310.104 30.61C310.844 30.1367 311.751 29.9 312.824 29.9C313.871 29.9 314.794 30.16 315.594 30.68C316.394 31.1933 316.944 31.9167 317.244 32.85L316.124 33.14C315.851 32.4667 315.421 31.9467 314.834 31.58C314.247 31.2067 313.574 31.02 312.814 31.02C311.961 31.02 311.257 31.2167 310.704 31.61C310.151 31.9967 309.737 32.5333 309.464 33.22C309.191 33.9067 309.047 34.7 309.034 35.6C309.054 36.98 309.377 38.09 310.004 38.93C310.637 39.7633 311.574 40.18 312.814 40.18C313.581 40.18 314.244 40.0033 314.804 39.65C315.371 39.2967 315.804 38.7833 316.104 38.11L317.244 38.41C316.844 39.3633 316.261 40.0833 315.494 40.57ZM326.198 40.58C325.445 41.06 324.538 41.3 323.478 41.3C322.405 41.3 321.495 41.0567 320.748 40.57C320.002 40.0833 319.432 39.41 319.038 38.55C318.645 37.69 318.448 36.7 318.448 35.58C318.448 34.4467 318.648 33.4533 319.048 32.6C319.448 31.7467 320.022 31.0833 320.768 30.61C321.522 30.1367 322.425 29.9 323.478 29.9C324.552 29.9 325.462 30.1433 326.208 30.63C326.962 31.11 327.532 31.7767 327.918 32.63C328.312 33.4833 328.508 34.4667 328.508 35.58C328.508 36.72 328.312 37.72 327.918 38.58C327.525 39.4333 326.952 40.1 326.198 40.58ZM320.638 38.92C321.285 39.76 322.232 40.18 323.478 40.18C324.758 40.18 325.712 39.7533 326.338 38.9C326.965 38.0467 327.278 36.94 327.278 35.58C327.278 34.1933 326.962 33.0867 326.328 32.26C325.695 31.4333 324.745 31.02 323.478 31.02C322.618 31.02 321.908 31.2167 321.348 31.61C320.788 31.9967 320.368 32.5333 320.088 33.22C319.815 33.9 319.678 34.6867 319.678 35.58C319.678 36.9667 319.998 38.08 320.638 38.92ZM338.378 30.2L334.458 41H333.238L329.318 30.2H330.508L333.558 38.62C333.638 38.8533 333.688 39.0733 333.708 39.28C333.728 39.4867 333.738 39.7333 333.738 40.02H333.968C333.975 39.66 333.985 39.39 333.998 39.21C334.018 39.0233 334.065 38.8267 334.138 38.62L337.178 30.2H338.378ZM347.071 40.52C346.237 41.04 345.294 41.3 344.241 41.3C343.207 41.3 342.314 41.07 341.561 40.61C340.807 40.1433 340.224 39.4867 339.811 38.64C339.397 37.7867 339.191 36.78 339.191 35.62C339.191 34.44 339.394 33.4233 339.801 32.57C340.214 31.71 340.794 31.05 341.541 30.59C342.294 30.13 343.187 29.9 344.221 29.9C345.267 29.9 346.161 30.14 346.901 30.62C347.647 31.0933 348.214 31.78 348.601 32.68C348.994 33.58 349.181 34.6633 349.161 35.93H347.961V35.53C347.927 34.05 347.594 32.9233 346.961 32.15C346.327 31.3767 345.421 30.99 344.241 30.99C343.021 30.99 342.077 31.3933 341.411 32.2C340.751 33 340.421 34.1333 340.421 35.6C340.421 37.0533 340.751 38.18 341.411 38.98C342.077 39.78 343.014 40.18 344.221 40.18C345.054 40.18 345.781 39.9867 346.401 39.6C347.027 39.2067 347.524 38.6467 347.891 37.92L348.951 38.25C348.537 39.2367 347.911 39.9933 347.071 40.52ZM348.511 34.89V35.93H339.981V34.89H340.321L340.311 35.46H340.701C340.714 35.28 340.791 35.14 340.931 35.04C341.077 34.94 341.274 34.89 341.521 34.89H348.511ZM352.533 35.52V41H351.373V30.2H352.423V30.74C352.423 31.4733 352.313 32.1567 352.093 32.79H352.323C352.489 32.1633 352.643 31.69 352.783 31.37C352.923 31.0433 353.143 30.7667 353.443 30.54C353.749 30.3067 354.216 30.19 354.843 30.19H356.433V31.28L354.803 31.27C354.069 31.27 353.506 31.54 353.113 32.08C352.719 32.74 352.526 33.8867 352.533 35.52ZM366.846 30.2L361.106 45.8H359.906L361.676 40.96L357.296 30.2H358.526L361.946 38.68C362.026 38.9067 362.076 39.1167 362.096 39.31C362.122 39.5033 362.136 39.7633 362.136 40.09H362.366C362.366 39.7633 362.376 39.5 362.396 39.3C362.422 39.1 362.476 38.89 362.556 38.67L365.636 30.2H366.846Z" fill="white"/>
<path d="M5 216C34.1667 154.167 133.9 25.4 299.5 5" stroke="white" stroke-width="2" stroke-linecap="round"/>
<circle cx="5" cy="216" r="5" fill="white"/>
<circle cx="68" cy="127" r="5" fill="white"/>
<circle cx="152" cy="57" r="5" fill="white"/>
<circle cx="300" cy="5" r="5" fill="white"/>
</svg>
