<svg width="368" height="253" viewBox="0 0 368 253" fill="none" xmlns="http://www.w3.org/2000/svg">
<path d="M12.44 235.69C12.5 236.037 12.5267 236.32 12.52 236.54V247H11.4V232.6H12.47L17.96 244.47C18.0667 244.69 18.1433 244.92 18.19 245.16C18.2367 245.393 18.26 245.66 18.26 245.96H18.49C18.4967 245.633 18.52 245.353 18.56 245.12C18.6 244.887 18.67 244.667 18.77 244.46L24.21 232.6H25.32V246.98H24.19V236.72C24.19 236.28 24.21 235.913 24.25 235.62C24.2967 235.32 24.38 234.933 24.5 234.46L24.27 234.42C24.1767 234.887 24.1033 235.223 24.05 235.43C23.9967 235.63 23.9067 235.87 23.78 236.15L18.83 247H17.89L13.12 236.55C12.9667 236.223 12.8467 235.92 12.76 235.64C12.68 235.36 12.5967 235.01 12.51 234.59L12.21 234.65C12.31 234.997 12.3867 235.343 12.44 235.69ZM34.4288 246.71C33.8288 247.07 33.1088 247.25 32.2688 247.25C31.6754 247.25 31.1421 247.163 30.6688 246.99C30.2021 246.817 29.7954 246.573 29.4488 246.26C29.1021 245.94 28.8154 245.567 28.5888 245.14C28.3621 244.707 28.1921 244.233 28.0788 243.72C27.9721 243.207 27.9188 242.67 27.9188 242.11V236.2H29.0788V241.82C29.0788 242.5 29.1454 243.107 29.2788 243.64C29.4188 244.173 29.6254 244.627 29.8988 245C30.1788 245.373 30.5254 245.657 30.9388 245.85C31.3588 246.043 31.8521 246.14 32.4188 246.14C33.0054 246.14 33.5121 246.04 33.9388 245.84C34.3721 245.633 34.7288 245.347 35.0088 244.98C35.2888 244.613 35.4954 244.18 35.6288 243.68C35.7621 243.173 35.8288 242.623 35.8288 242.03L36.5288 242.14C36.5288 243.307 36.3288 244.27 35.9288 245.03C35.5354 245.783 35.0354 246.343 34.4288 246.71ZM35.8288 244.93V236.2H36.9888V247H35.9388V246.08C35.9388 245.72 36.0354 245.337 36.2288 244.93H35.8288ZM46.8289 246.43C46.0889 246.997 45.0689 247.28 43.7689 247.28C42.5222 247.28 41.4922 247.017 40.6789 246.49C39.8722 245.963 39.3689 245.207 39.1689 244.22L40.3589 244.09C40.5256 244.73 40.9189 245.24 41.5389 245.62C42.1589 246 42.9189 246.19 43.8189 246.19C44.7189 246.19 45.4289 246 45.9489 245.62C46.4756 245.24 46.7389 244.72 46.7389 244.06C46.7389 243.7 46.6556 243.407 46.4889 243.18C46.3289 242.947 46.0089 242.733 45.5289 242.54C45.0489 242.347 44.3356 242.12 43.3889 241.86C42.3889 241.593 41.6056 241.327 41.0389 241.06C40.4789 240.793 40.0822 240.49 39.8489 240.15C39.6222 239.81 39.5089 239.393 39.5089 238.9C39.5089 238.307 39.6789 237.783 40.0189 237.33C40.3589 236.877 40.8322 236.527 41.4389 236.28C42.0522 236.027 42.7589 235.9 43.5589 235.9C44.3589 235.9 45.0789 236.033 45.7189 236.3C46.3589 236.56 46.8756 236.927 47.2689 237.4C47.6622 237.867 47.8922 238.44 47.9589 239.12L46.7689 239.25C46.6556 238.557 46.3056 238.01 45.7189 237.61C45.1389 237.203 44.4056 236.997 43.5189 236.99C42.6856 236.97 42.0056 237.133 41.4789 237.48C40.9522 237.827 40.6889 238.28 40.6889 238.84C40.6889 239.153 40.7789 239.423 40.9589 239.65C41.1456 239.877 41.4722 240.083 41.9389 240.27C42.4056 240.457 43.0656 240.657 43.9189 240.87C44.9589 241.137 45.7689 241.41 46.3489 241.69C46.9356 241.97 47.3489 242.3 47.5889 242.68C47.8289 243.053 47.9489 243.517 47.9489 244.07C47.9489 245.07 47.5756 245.857 46.8289 246.43ZM57.2595 246.57C56.4995 247.057 55.6062 247.3 54.5795 247.3C53.4995 247.3 52.5895 247.06 51.8495 246.58C51.1095 246.093 50.5495 245.423 50.1695 244.57C49.7895 243.71 49.5895 242.72 49.5695 241.6C49.5895 240.453 49.7929 239.453 50.1795 238.6C50.5662 237.747 51.1295 237.083 51.8695 236.61C52.6095 236.137 53.5162 235.9 54.5895 235.9C55.6362 235.9 56.5595 236.16 57.3595 236.68C58.1595 237.193 58.7095 237.917 59.0095 238.85L57.8895 239.14C57.6162 238.467 57.1862 237.947 56.5995 237.58C56.0129 237.207 55.3395 237.02 54.5795 237.02C53.7262 237.02 53.0229 237.217 52.4695 237.61C51.9162 237.997 51.5029 238.533 51.2295 239.22C50.9562 239.907 50.8129 240.7 50.7995 241.6C50.8195 242.98 51.1429 244.09 51.7695 244.93C52.4029 245.763 53.3395 246.18 54.5795 246.18C55.3462 246.18 56.0095 246.003 56.5695 245.65C57.1362 245.297 57.5695 244.783 57.8695 244.11L59.0095 244.41C58.6095 245.363 58.0262 246.083 57.2595 246.57ZM62.1641 232.3V247H61.0141V232.3H62.1641ZM72.4495 246.52C71.6162 247.04 70.6729 247.3 69.6195 247.3C68.5862 247.3 67.6929 247.07 66.9395 246.61C66.1862 246.143 65.6029 245.487 65.1895 244.64C64.7762 243.787 64.5695 242.78 64.5695 241.62C64.5695 240.44 64.7729 239.423 65.1795 238.57C65.5929 237.71 66.1729 237.05 66.9195 236.59C67.6729 236.13 68.5662 235.9 69.5995 235.9C70.6462 235.9 71.5395 236.14 72.2795 236.62C73.0262 237.093 73.5929 237.78 73.9795 238.68C74.3729 239.58 74.5595 240.663 74.5395 241.93H73.3395V241.53C73.3062 240.05 72.9729 238.923 72.3395 238.15C71.7062 237.377 70.7995 236.99 69.6195 236.99C68.3995 236.99 67.4562 237.393 66.7895 238.2C66.1295 239 65.7995 240.133 65.7995 241.6C65.7995 243.053 66.1295 244.18 66.7895 244.98C67.4562 245.78 68.3929 246.18 69.5995 246.18C70.4329 246.18 71.1595 245.987 71.7795 245.6C72.4062 245.207 72.9029 244.647 73.2695 243.92L74.3295 244.25C73.9162 245.237 73.2895 245.993 72.4495 246.52ZM73.8895 240.89V241.93H65.3595V240.89H65.6995L65.6895 241.46H66.0795C66.0929 241.28 66.1695 241.14 66.3095 241.04C66.4562 240.94 66.6529 240.89 66.8995 240.89H73.8895ZM82.1575 241.49C82.2108 241.537 82.2375 241.7 82.2375 241.98V247H81.0875V232.6H86.5175C86.6575 232.6 86.8075 232.607 86.9675 232.62C87.1342 232.627 87.3075 232.647 87.4875 232.68C88.2075 232.793 88.8242 233.05 89.3375 233.45C89.8575 233.85 90.2542 234.357 90.5275 234.97C90.8008 235.583 90.9375 236.257 90.9375 236.99C90.9375 237.723 90.8008 238.397 90.5275 239.01C90.2542 239.623 89.8575 240.133 89.3375 240.54C88.8242 240.94 88.2075 241.197 87.4875 241.31C87.3075 241.337 87.1342 241.357 86.9675 241.37C86.8075 241.383 86.6575 241.39 86.5175 241.39H82.7475C82.5342 241.383 82.3908 241.363 82.3175 241.33C82.2442 241.297 82.1275 241.207 81.9675 241.06L81.8275 241.24C82.0008 241.36 82.1108 241.443 82.1575 241.49ZM82.1275 240.16C82.0542 240.273 81.9475 240.393 81.8075 240.52L81.9675 240.68C82.2208 240.4 82.4808 240.26 82.7475 240.26H86.4975C86.6175 240.26 86.7542 240.253 86.9075 240.24C87.0675 240.227 87.2275 240.207 87.3875 240.18C87.9075 240.073 88.3408 239.863 88.6875 239.55C89.0342 239.23 89.2942 238.847 89.4675 238.4C89.6408 237.953 89.7275 237.483 89.7275 236.99C89.7275 236.497 89.6408 236.03 89.4675 235.59C89.2942 235.143 89.0342 234.76 88.6875 234.44C88.3408 234.12 87.9075 233.91 87.3875 233.81C87.2275 233.77 87.0675 233.747 86.9075 233.74C86.7542 233.727 86.6175 233.72 86.4975 233.72H82.8475C82.6542 233.72 82.5042 233.693 82.3975 233.64C82.2975 233.58 82.1742 233.473 82.0275 233.32L81.8675 233.48C82.0008 233.613 82.0942 233.74 82.1475 233.86C82.2075 233.98 82.2375 234.143 82.2375 234.35V239.77C82.2375 239.917 82.2008 240.047 82.1275 240.16ZM94.103 241.52V247H92.943V236.2H93.993V236.74C93.993 237.473 93.883 238.157 93.663 238.79H93.893C94.0596 238.163 94.213 237.69 94.353 237.37C94.493 237.043 94.713 236.767 95.013 236.54C95.3196 236.307 95.7863 236.19 96.413 236.19H98.003V237.28L96.373 237.27C95.6396 237.27 95.0763 237.54 94.683 238.08C94.2896 238.74 94.0963 239.887 94.103 241.52ZM106.981 246.52C106.147 247.04 105.204 247.3 104.151 247.3C103.117 247.3 102.224 247.07 101.471 246.61C100.717 246.143 100.134 245.487 99.7208 244.64C99.3074 243.787 99.1008 242.78 99.1008 241.62C99.1008 240.44 99.3041 239.423 99.7108 238.57C100.124 237.71 100.704 237.05 101.451 236.59C102.204 236.13 103.097 235.9 104.131 235.9C105.177 235.9 106.071 236.14 106.811 236.62C107.557 237.093 108.124 237.78 108.511 238.68C108.904 239.58 109.091 240.663 109.071 241.93H107.871V241.53C107.837 240.05 107.504 238.923 106.871 238.15C106.237 237.377 105.331 236.99 104.151 236.99C102.931 236.99 101.987 237.393 101.321 238.2C100.661 239 100.331 240.133 100.331 241.6C100.331 243.053 100.661 244.18 101.321 244.98C101.987 245.78 102.924 246.18 104.131 246.18C104.964 246.18 105.691 245.987 106.311 245.6C106.937 245.207 107.434 244.647 107.801 243.92L108.861 244.25C108.447 245.237 107.821 245.993 106.981 246.52ZM108.421 240.89V241.93H99.8908V240.89H100.231L100.221 241.46H100.611C100.624 241.28 100.701 241.14 100.841 241.04C100.987 240.94 101.184 240.89 101.431 240.89H108.421ZM118.333 246.43C117.593 246.997 116.573 247.28 115.273 247.28C114.026 247.28 112.996 247.017 112.183 246.49C111.376 245.963 110.873 245.207 110.673 244.22L111.863 244.09C112.029 244.73 112.423 245.24 113.043 245.62C113.663 246 114.423 246.19 115.323 246.19C116.223 246.19 116.933 246 117.453 245.62C117.979 245.24 118.243 244.72 118.243 244.06C118.243 243.7 118.159 243.407 117.993 243.18C117.833 242.947 117.513 242.733 117.033 242.54C116.553 242.347 115.839 242.12 114.893 241.86C113.893 241.593 113.109 241.327 112.543 241.06C111.983 240.793 111.586 240.49 111.353 240.15C111.126 239.81 111.013 239.393 111.013 238.9C111.013 238.307 111.183 237.783 111.523 237.33C111.863 236.877 112.336 236.527 112.943 236.28C113.556 236.027 114.263 235.9 115.063 235.9C115.863 235.9 116.583 236.033 117.223 236.3C117.863 236.56 118.379 236.927 118.773 237.4C119.166 237.867 119.396 238.44 119.463 239.12L118.273 239.25C118.159 238.557 117.809 238.01 117.223 237.61C116.643 237.203 115.909 236.997 115.023 236.99C114.189 236.97 113.509 237.133 112.983 237.48C112.456 237.827 112.193 238.28 112.193 238.84C112.193 239.153 112.283 239.423 112.463 239.65C112.649 239.877 112.976 240.083 113.443 240.27C113.909 240.457 114.569 240.657 115.423 240.87C116.463 241.137 117.273 241.41 117.853 241.69C118.439 241.97 118.853 242.3 119.093 242.68C119.333 243.053 119.453 243.517 119.453 244.07C119.453 245.07 119.079 245.857 118.333 246.43ZM128.953 246.52C128.12 247.04 127.177 247.3 126.123 247.3C125.09 247.3 124.197 247.07 123.443 246.61C122.69 246.143 122.107 245.487 121.693 244.64C121.28 243.787 121.073 242.78 121.073 241.62C121.073 240.44 121.277 239.423 121.683 238.57C122.097 237.71 122.677 237.05 123.423 236.59C124.177 236.13 125.07 235.9 126.103 235.9C127.15 235.9 128.043 236.14 128.783 236.62C129.53 237.093 130.097 237.78 130.483 238.68C130.877 239.58 131.063 240.663 131.043 241.93H129.843V241.53C129.81 240.05 129.477 238.923 128.843 238.15C128.21 237.377 127.303 236.99 126.123 236.99C124.903 236.99 123.96 237.393 123.293 238.2C122.633 239 122.303 240.133 122.303 241.6C122.303 243.053 122.633 244.18 123.293 244.98C123.96 245.78 124.897 246.18 126.103 246.18C126.937 246.18 127.663 245.987 128.283 245.6C128.91 245.207 129.407 244.647 129.773 243.92L130.833 244.25C130.42 245.237 129.793 245.993 128.953 246.52ZM130.393 240.89V241.93H121.863V240.89H122.203L122.193 241.46H122.583C122.597 241.28 122.673 241.14 122.813 241.04C122.96 240.94 123.157 240.89 123.403 240.89H130.393ZM134.415 241.52V247H133.255V236.2H134.305V236.74C134.305 237.473 134.195 238.157 133.975 238.79H134.205C134.372 238.163 134.525 237.69 134.665 237.37C134.805 237.043 135.025 236.767 135.325 236.54C135.632 236.307 136.099 236.19 136.725 236.19H138.315V237.28L136.685 237.27C135.952 237.27 135.389 237.54 134.995 238.08C134.602 238.74 134.409 239.887 134.415 241.52ZM148.269 236.2L144.349 247H143.129L139.209 236.2H140.399L143.449 244.62C143.529 244.853 143.579 245.073 143.599 245.28C143.619 245.487 143.629 245.733 143.629 246.02H143.859C143.865 245.66 143.875 245.39 143.889 245.21C143.909 245.023 143.955 244.827 144.029 244.62L147.069 236.2H148.269ZM155.366 246.52C154.626 247.04 153.7 247.3 152.586 247.3C151.753 247.3 151.06 247.153 150.506 246.86C149.96 246.567 149.55 246.18 149.276 245.7C149.003 245.213 148.866 244.687 148.866 244.12C148.866 243.507 148.993 242.993 149.246 242.58C149.5 242.16 149.84 241.82 150.266 241.56C150.693 241.293 151.17 241.097 151.696 240.97C152.343 240.823 153.013 240.747 153.706 240.74C154.406 240.733 155.05 240.73 155.636 240.73C156.23 240.73 156.726 240.73 157.126 240.73L156.696 240.86C156.73 239.433 156.513 238.437 156.046 237.87C155.58 237.297 154.763 237.01 153.596 237.01C152.776 237.01 152.1 237.197 151.566 237.57C151.04 237.937 150.686 238.503 150.506 239.27L149.276 239.07C149.476 238.017 149.96 237.227 150.726 236.7C151.5 236.167 152.47 235.9 153.636 235.9C154.63 235.9 155.463 236.093 156.136 236.48C156.816 236.867 157.29 237.41 157.556 238.11C157.67 238.397 157.746 238.733 157.786 239.12C157.826 239.5 157.846 239.883 157.846 240.27V247H156.796V246.48C156.796 246.067 156.836 245.71 156.916 245.41C156.996 245.103 157.106 244.717 157.246 244.25L156.996 244.22C156.65 245.233 156.106 246 155.366 246.52ZM151.106 245.92C151.486 246.133 152 246.24 152.646 246.24C153.38 246.24 154.023 246.11 154.576 245.85C155.13 245.583 155.576 245.213 155.916 244.74C156.263 244.26 156.483 243.697 156.576 243.05C156.65 242.69 156.686 242.393 156.686 242.16C156.693 241.927 156.696 241.713 156.696 241.52L157.206 241.7C156.766 241.693 156.243 241.693 155.636 241.7C155.03 241.7 154.41 241.71 153.776 241.73C153.15 241.743 152.583 241.82 152.076 241.96C151.763 242.047 151.45 242.177 151.136 242.35C150.823 242.517 150.563 242.747 150.356 243.04C150.15 243.327 150.046 243.69 150.046 244.13C150.046 244.457 150.126 244.783 150.286 245.11C150.453 245.437 150.726 245.707 151.106 245.92ZM166.173 245.97V247.02C165.6 247.12 165.033 247.157 164.473 247.13C163.913 247.103 163.413 246.98 162.973 246.76C162.54 246.533 162.213 246.19 161.993 245.73C161.813 245.35 161.713 244.967 161.693 244.58C161.673 244.193 161.663 243.75 161.663 243.25V233.2H162.823V237.25H162.123V237.53C162.376 237.53 162.556 237.58 162.663 237.68C162.77 237.773 162.823 237.97 162.823 238.27V243.23C162.823 243.683 162.826 244.06 162.833 244.36C162.846 244.653 162.916 244.923 163.043 245.17C163.283 245.637 163.663 245.917 164.183 246.01C164.703 246.097 165.366 246.083 166.173 245.97ZM166.173 236.2V237.32H159.243V236.2H166.173ZM169.586 232.55V234.02H168.436V232.55H169.586ZM169.586 236.2V247H168.436V236.2H169.586ZM179.741 246.58C178.988 247.06 178.081 247.3 177.021 247.3C175.948 247.3 175.038 247.057 174.291 246.57C173.545 246.083 172.975 245.41 172.581 244.55C172.188 243.69 171.991 242.7 171.991 241.58C171.991 240.447 172.191 239.453 172.591 238.6C172.991 237.747 173.565 237.083 174.311 236.61C175.065 236.137 175.968 235.9 177.021 235.9C178.095 235.9 179.005 236.143 179.751 236.63C180.505 237.11 181.075 237.777 181.461 238.63C181.855 239.483 182.051 240.467 182.051 241.58C182.051 242.72 181.855 243.72 181.461 244.58C181.068 245.433 180.495 246.1 179.741 246.58ZM174.181 244.92C174.828 245.76 175.775 246.18 177.021 246.18C178.301 246.18 179.255 245.753 179.881 244.9C180.508 244.047 180.821 242.94 180.821 241.58C180.821 240.193 180.505 239.087 179.871 238.26C179.238 237.433 178.288 237.02 177.021 237.02C176.161 237.02 175.451 237.217 174.891 237.61C174.331 237.997 173.911 238.533 173.631 239.22C173.358 239.9 173.221 240.687 173.221 241.58C173.221 242.967 173.541 244.08 174.181 244.92ZM193.322 241.09V247H192.162V241.38C192.162 240.693 192.095 240.083 191.962 239.55C191.828 239.017 191.622 238.567 191.342 238.2C191.062 237.827 190.712 237.543 190.292 237.35C189.878 237.157 189.388 237.06 188.822 237.06C188.235 237.06 187.725 237.163 187.292 237.37C186.865 237.57 186.512 237.853 186.232 238.22C185.958 238.587 185.752 239.023 185.612 239.53C185.478 240.03 185.412 240.577 185.412 241.17L184.742 241.06C184.742 239.893 184.902 238.933 185.222 238.18C185.542 237.42 186.035 236.86 186.702 236.5C187.375 236.133 188.132 235.95 188.972 235.95C189.565 235.95 190.095 236.037 190.562 236.21C191.035 236.383 191.445 236.63 191.792 236.95C192.138 237.263 192.425 237.637 192.652 238.07C192.878 238.497 193.045 238.967 193.152 239.48C193.265 239.987 193.322 240.523 193.322 241.09ZM185.402 238.26V247H184.252V236.2H185.302V237.12C185.302 237.493 185.202 237.873 185.002 238.26H185.402Z" fill="white"/>
<path d="M75.75 146.6V161H74.6V146.6H75.75ZM87.8255 155.09V161H86.6655V155.38C86.6655 154.693 86.5988 154.083 86.4655 153.55C86.3321 153.017 86.1255 152.567 85.8455 152.2C85.5655 151.827 85.2155 151.543 84.7955 151.35C84.3821 151.157 83.8921 151.06 83.3255 151.06C82.7388 151.06 82.2288 151.163 81.7955 151.37C81.3688 151.57 81.0155 151.853 80.7355 152.22C80.4621 152.587 80.2555 153.023 80.1155 153.53C79.9821 154.03 79.9155 154.577 79.9155 155.17L79.2455 155.06C79.2455 153.893 79.4055 152.933 79.7255 152.18C80.0455 151.42 80.5388 150.86 81.2055 150.5C81.8788 150.133 82.6355 149.95 83.4755 149.95C84.0688 149.95 84.5988 150.037 85.0655 150.21C85.5388 150.383 85.9488 150.63 86.2955 150.95C86.6421 151.263 86.9288 151.637 87.1555 152.07C87.3821 152.497 87.5488 152.967 87.6555 153.48C87.7688 153.987 87.8255 154.523 87.8255 155.09ZM79.9055 152.26V161H78.7555V150.2H79.8055V151.12C79.8055 151.493 79.7055 151.873 79.5055 152.26H79.9055ZM92.6856 149.15V161H91.5356V152.43C91.5356 151.81 91.769 151.5 92.2356 151.5V151.23H91.5356V149.19C91.5356 148.91 91.5523 148.643 91.5856 148.39C91.619 148.137 91.6823 147.897 91.7756 147.67C91.869 147.443 92.0056 147.23 92.1856 147.03C92.3723 146.83 92.579 146.677 92.8056 146.57C93.039 146.463 93.2856 146.393 93.5456 146.36C93.8056 146.32 94.079 146.3 94.3656 146.3H95.7556V147.3H94.4656C93.8723 147.3 93.4256 147.443 93.1256 147.73C92.8323 148.017 92.6856 148.49 92.6856 149.15ZM95.7556 150.2V151.32H89.6156V150.2H95.7556ZM98.9922 146.3V161H97.8422V146.3H98.9922ZM107.898 160.52C107.158 161.04 106.231 161.3 105.118 161.3C104.284 161.3 103.591 161.153 103.038 160.86C102.491 160.567 102.081 160.18 101.808 159.7C101.534 159.213 101.398 158.687 101.398 158.12C101.398 157.507 101.524 156.993 101.778 156.58C102.031 156.16 102.371 155.82 102.798 155.56C103.224 155.293 103.701 155.097 104.228 154.97C104.874 154.823 105.544 154.747 106.238 154.74C106.938 154.733 107.581 154.73 108.168 154.73C108.761 154.73 109.258 154.73 109.658 154.73L109.228 154.86C109.261 153.433 109.044 152.437 108.578 151.87C108.111 151.297 107.294 151.01 106.128 151.01C105.308 151.01 104.631 151.197 104.098 151.57C103.571 151.937 103.218 152.503 103.038 153.27L101.808 153.07C102.008 152.017 102.491 151.227 103.258 150.7C104.031 150.167 105.001 149.9 106.168 149.9C107.161 149.9 107.994 150.093 108.668 150.48C109.348 150.867 109.821 151.41 110.088 152.11C110.201 152.397 110.278 152.733 110.318 153.12C110.358 153.5 110.378 153.883 110.378 154.27V161H109.328V160.48C109.328 160.067 109.368 159.71 109.448 159.41C109.528 159.103 109.638 158.717 109.778 158.25L109.528 158.22C109.181 159.233 108.638 160 107.898 160.52ZM103.638 159.92C104.018 160.133 104.531 160.24 105.178 160.24C105.911 160.24 106.554 160.11 107.108 159.85C107.661 159.583 108.108 159.213 108.448 158.74C108.794 158.26 109.014 157.697 109.108 157.05C109.181 156.69 109.218 156.393 109.218 156.16C109.224 155.927 109.228 155.713 109.228 155.52L109.738 155.7C109.298 155.693 108.774 155.693 108.168 155.7C107.561 155.7 106.941 155.71 106.308 155.73C105.681 155.743 105.114 155.82 104.608 155.96C104.294 156.047 103.981 156.177 103.668 156.35C103.354 156.517 103.094 156.747 102.888 157.04C102.681 157.327 102.578 157.69 102.578 158.13C102.578 158.457 102.658 158.783 102.818 159.11C102.984 159.437 103.258 159.707 103.638 159.92ZM126.994 153.57L126.974 161H125.824L125.844 153.74C125.844 152.867 125.594 152.183 125.094 151.69C124.601 151.19 123.984 150.94 123.244 150.94C122.824 150.94 122.408 151.037 121.994 151.23C121.588 151.417 121.248 151.73 120.974 152.17C120.701 152.603 120.564 153.19 120.564 153.93L120.324 153.8C120.298 153.013 120.361 152.333 120.514 151.76C120.674 151.187 121.021 150.737 121.554 150.41C122.088 150.077 122.714 149.91 123.434 149.91C124.494 149.91 125.351 150.237 126.004 150.89C126.664 151.543 126.994 152.437 126.994 153.57ZM114.124 151.99V161H112.974V150.2H114.024V150.89C114.024 151.09 113.998 151.293 113.944 151.5C113.898 151.7 113.831 151.863 113.744 151.99H114.124ZM120.564 153.15L120.544 161H119.404L119.424 153.85C119.424 152.957 119.181 152.25 118.694 151.73C118.208 151.203 117.574 150.94 116.794 150.94C116.001 150.94 115.358 151.213 114.864 151.76C114.371 152.3 114.124 153.023 114.124 153.93L113.714 153.53C113.714 152.83 113.834 152.207 114.074 151.66C114.314 151.113 114.688 150.687 115.194 150.38C115.701 150.067 116.314 149.91 117.034 149.91C117.661 149.91 118.231 150.04 118.744 150.3C119.258 150.553 119.621 150.94 119.834 151.46C120.048 151.98 120.154 152.477 120.154 152.95V153.15H120.564ZM143.615 153.57L143.595 161H142.445L142.465 153.74C142.465 152.867 142.215 152.183 141.715 151.69C141.222 151.19 140.605 150.94 139.865 150.94C139.445 150.94 139.029 151.037 138.615 151.23C138.209 151.417 137.869 151.73 137.595 152.17C137.322 152.603 137.185 153.19 137.185 153.93L136.945 153.8C136.919 153.013 136.982 152.333 137.135 151.76C137.295 151.187 137.642 150.737 138.175 150.41C138.709 150.077 139.335 149.91 140.055 149.91C141.115 149.91 141.972 150.237 142.625 150.89C143.285 151.543 143.615 152.437 143.615 153.57ZM130.745 151.99V161H129.595V150.2H130.645V150.89C130.645 151.09 130.619 151.293 130.565 151.5C130.519 151.7 130.452 151.863 130.365 151.99H130.745ZM137.185 153.15L137.165 161H136.025L136.045 153.85C136.045 152.957 135.802 152.25 135.315 151.73C134.829 151.203 134.195 150.94 133.415 150.94C132.622 150.94 131.979 151.213 131.485 151.76C130.992 152.3 130.745 153.023 130.745 153.93L130.335 153.53C130.335 152.83 130.455 152.207 130.695 151.66C130.935 151.113 131.309 150.687 131.815 150.38C132.322 150.067 132.935 149.91 133.655 149.91C134.282 149.91 134.852 150.04 135.365 150.3C135.879 150.553 136.242 150.94 136.455 151.46C136.669 151.98 136.775 152.477 136.775 152.95V153.15H137.185ZM152.116 160.52C151.376 161.04 150.45 161.3 149.336 161.3C148.503 161.3 147.81 161.153 147.256 160.86C146.71 160.567 146.3 160.18 146.026 159.7C145.753 159.213 145.616 158.687 145.616 158.12C145.616 157.507 145.743 156.993 145.996 156.58C146.25 156.16 146.59 155.82 147.016 155.56C147.443 155.293 147.92 155.097 148.446 154.97C149.093 154.823 149.763 154.747 150.456 154.74C151.156 154.733 151.8 154.73 152.386 154.73C152.98 154.73 153.476 154.73 153.876 154.73L153.446 154.86C153.48 153.433 153.263 152.437 152.796 151.87C152.33 151.297 151.513 151.01 150.346 151.01C149.526 151.01 148.85 151.197 148.316 151.57C147.79 151.937 147.436 152.503 147.256 153.27L146.026 153.07C146.226 152.017 146.71 151.227 147.476 150.7C148.25 150.167 149.22 149.9 150.386 149.9C151.38 149.9 152.213 150.093 152.886 150.48C153.566 150.867 154.04 151.41 154.306 152.11C154.42 152.397 154.496 152.733 154.536 153.12C154.576 153.5 154.596 153.883 154.596 154.27V161H153.546V160.48C153.546 160.067 153.586 159.71 153.666 159.41C153.746 159.103 153.856 158.717 153.996 158.25L153.746 158.22C153.4 159.233 152.856 160 152.116 160.52ZM147.856 159.92C148.236 160.133 148.75 160.24 149.396 160.24C150.13 160.24 150.773 160.11 151.326 159.85C151.88 159.583 152.326 159.213 152.666 158.74C153.013 158.26 153.233 157.697 153.326 157.05C153.4 156.69 153.436 156.393 153.436 156.16C153.443 155.927 153.446 155.713 153.446 155.52L153.956 155.7C153.516 155.693 152.993 155.693 152.386 155.7C151.78 155.7 151.16 155.71 150.526 155.73C149.9 155.743 149.333 155.82 148.826 155.96C148.513 156.047 148.2 156.177 147.886 156.35C147.573 156.517 147.313 156.747 147.106 157.04C146.9 157.327 146.796 157.69 146.796 158.13C146.796 158.457 146.876 158.783 147.036 159.11C147.203 159.437 147.476 159.707 147.856 159.92ZM162.923 159.97V161.02C162.35 161.12 161.783 161.157 161.223 161.13C160.663 161.103 160.163 160.98 159.723 160.76C159.29 160.533 158.963 160.19 158.743 159.73C158.563 159.35 158.463 158.967 158.443 158.58C158.423 158.193 158.413 157.75 158.413 157.25V147.2H159.573V151.25H158.873V151.53C159.126 151.53 159.306 151.58 159.413 151.68C159.52 151.773 159.573 151.97 159.573 152.27V157.23C159.573 157.683 159.576 158.06 159.583 158.36C159.596 158.653 159.666 158.923 159.793 159.17C160.033 159.637 160.413 159.917 160.933 160.01C161.453 160.097 162.116 160.083 162.923 159.97ZM162.923 150.2V151.32H155.993V150.2H162.923ZM166.336 146.55V148.02H165.186V146.55H166.336ZM166.336 150.2V161H165.186V150.2H166.336ZM176.491 160.58C175.738 161.06 174.831 161.3 173.771 161.3C172.698 161.3 171.788 161.057 171.041 160.57C170.295 160.083 169.725 159.41 169.331 158.55C168.938 157.69 168.741 156.7 168.741 155.58C168.741 154.447 168.941 153.453 169.341 152.6C169.741 151.747 170.315 151.083 171.061 150.61C171.815 150.137 172.718 149.9 173.771 149.9C174.845 149.9 175.755 150.143 176.501 150.63C177.255 151.11 177.825 151.777 178.211 152.63C178.605 153.483 178.801 154.467 178.801 155.58C178.801 156.72 178.605 157.72 178.211 158.58C177.818 159.433 177.245 160.1 176.491 160.58ZM170.931 158.92C171.578 159.76 172.525 160.18 173.771 160.18C175.051 160.18 176.005 159.753 176.631 158.9C177.258 158.047 177.571 156.94 177.571 155.58C177.571 154.193 177.255 153.087 176.621 152.26C175.988 151.433 175.038 151.02 173.771 151.02C172.911 151.02 172.201 151.217 171.641 151.61C171.081 151.997 170.661 152.533 170.381 153.22C170.108 153.9 169.971 154.687 169.971 155.58C169.971 156.967 170.291 158.08 170.931 158.92ZM190.072 155.09V161H188.912V155.38C188.912 154.693 188.845 154.083 188.712 153.55C188.578 153.017 188.372 152.567 188.092 152.2C187.812 151.827 187.462 151.543 187.042 151.35C186.628 151.157 186.138 151.06 185.572 151.06C184.985 151.06 184.475 151.163 184.042 151.37C183.615 151.57 183.262 151.853 182.982 152.22C182.708 152.587 182.502 153.023 182.362 153.53C182.228 154.03 182.162 154.577 182.162 155.17L181.492 155.06C181.492 153.893 181.652 152.933 181.972 152.18C182.292 151.42 182.785 150.86 183.452 150.5C184.125 150.133 184.882 149.95 185.722 149.95C186.315 149.95 186.845 150.037 187.312 150.21C187.785 150.383 188.195 150.63 188.542 150.95C188.888 151.263 189.175 151.637 189.402 152.07C189.628 152.497 189.795 152.967 189.902 153.48C190.015 153.987 190.072 154.523 190.072 155.09ZM182.152 152.26V161H181.002V150.2H182.052V151.12C182.052 151.493 181.952 151.873 181.752 152.26H182.152Z" fill="white"/>
<path d="M154.44 80.69C154.5 81.0367 154.527 81.32 154.52 81.54V92H153.4V77.6H154.47L159.96 89.47C160.067 89.69 160.143 89.92 160.19 90.16C160.237 90.3933 160.26 90.66 160.26 90.96H160.49C160.497 90.6333 160.52 90.3533 160.56 90.12C160.6 89.8867 160.67 89.6667 160.77 89.46L166.21 77.6H167.32V91.98H166.19V81.72C166.19 81.28 166.21 80.9133 166.25 80.62C166.297 80.32 166.38 79.9333 166.5 79.46L166.27 79.42C166.177 79.8867 166.103 80.2233 166.05 80.43C165.997 80.63 165.907 80.87 165.78 81.15L160.83 92H159.89L155.12 81.55C154.967 81.2233 154.847 80.92 154.76 80.64C154.68 80.36 154.597 80.01 154.51 79.59L154.21 79.65C154.31 79.9967 154.387 80.3433 154.44 80.69ZM177.399 91.52C176.565 92.04 175.622 92.3 174.569 92.3C173.535 92.3 172.642 92.07 171.889 91.61C171.135 91.1433 170.552 90.4867 170.139 89.64C169.725 88.7867 169.519 87.78 169.519 86.62C169.519 85.44 169.722 84.4233 170.129 83.57C170.542 82.71 171.122 82.05 171.869 81.59C172.622 81.13 173.515 80.9 174.549 80.9C175.595 80.9 176.489 81.14 177.229 81.62C177.975 82.0933 178.542 82.78 178.929 83.68C179.322 84.58 179.509 85.6633 179.489 86.93H178.289V86.53C178.255 85.05 177.922 83.9233 177.289 83.15C176.655 82.3767 175.749 81.99 174.569 81.99C173.349 81.99 172.405 82.3933 171.739 83.2C171.079 84 170.749 85.1333 170.749 86.6C170.749 88.0533 171.079 89.18 171.739 89.98C172.405 90.78 173.342 91.18 174.549 91.18C175.382 91.18 176.109 90.9867 176.729 90.6C177.355 90.2067 177.852 89.6467 178.219 88.92L179.279 89.25C178.865 90.2367 178.239 90.9933 177.399 91.52ZM178.839 85.89V86.93H170.309V85.89H170.649L170.639 86.46H171.029C171.042 86.28 171.119 86.14 171.259 86.04C171.405 85.94 171.602 85.89 171.849 85.89H178.839ZM187.431 90.97V92.02C186.857 92.12 186.291 92.1567 185.731 92.13C185.171 92.1033 184.671 91.98 184.231 91.76C183.797 91.5333 183.471 91.19 183.251 90.73C183.071 90.35 182.971 89.9667 182.951 89.58C182.931 89.1933 182.921 88.75 182.921 88.25V78.2H184.081V82.25H183.381V82.53C183.634 82.53 183.814 82.58 183.921 82.68C184.027 82.7733 184.081 82.97 184.081 83.27V88.23C184.081 88.6833 184.084 89.06 184.091 89.36C184.104 89.6533 184.174 89.9233 184.301 90.17C184.541 90.6367 184.921 90.9167 185.441 91.01C185.961 91.0967 186.624 91.0833 187.431 90.97ZM187.431 81.2V82.32H180.501V81.2H187.431ZM195.394 91.52C194.654 92.04 193.727 92.3 192.614 92.3C191.78 92.3 191.087 92.1533 190.534 91.86C189.987 91.5667 189.577 91.18 189.304 90.7C189.03 90.2133 188.894 89.6867 188.894 89.12C188.894 88.5067 189.02 87.9933 189.274 87.58C189.527 87.16 189.867 86.82 190.294 86.56C190.72 86.2933 191.197 86.0967 191.724 85.97C192.37 85.8233 193.04 85.7467 193.734 85.74C194.434 85.7333 195.077 85.73 195.664 85.73C196.257 85.73 196.754 85.73 197.154 85.73L196.724 85.86C196.757 84.4333 196.54 83.4367 196.074 82.87C195.607 82.2967 194.79 82.01 193.624 82.01C192.804 82.01 192.127 82.1967 191.594 82.57C191.067 82.9367 190.714 83.5033 190.534 84.27L189.304 84.07C189.504 83.0167 189.987 82.2267 190.754 81.7C191.527 81.1667 192.497 80.9 193.664 80.9C194.657 80.9 195.49 81.0933 196.164 81.48C196.844 81.8667 197.317 82.41 197.584 83.11C197.697 83.3967 197.774 83.7333 197.814 84.12C197.854 84.5 197.874 84.8833 197.874 85.27V92H196.824V91.48C196.824 91.0667 196.864 90.71 196.944 90.41C197.024 90.1033 197.134 89.7167 197.274 89.25L197.024 89.22C196.677 90.2333 196.134 91 195.394 91.52ZM191.134 90.92C191.514 91.1333 192.027 91.24 192.674 91.24C193.407 91.24 194.05 91.11 194.604 90.85C195.157 90.5833 195.604 90.2133 195.944 89.74C196.29 89.26 196.51 88.6967 196.604 88.05C196.677 87.69 196.714 87.3933 196.714 87.16C196.72 86.9267 196.724 86.7133 196.724 86.52L197.234 86.7C196.794 86.6933 196.27 86.6933 195.664 86.7C195.057 86.7 194.437 86.71 193.804 86.73C193.177 86.7433 192.61 86.82 192.104 86.96C191.79 87.0467 191.477 87.1767 191.164 87.35C190.85 87.5167 190.59 87.7467 190.384 88.04C190.177 88.3267 190.074 88.69 190.074 89.13C190.074 89.4567 190.154 89.7833 190.314 90.11C190.48 90.4367 190.754 90.7067 191.134 90.92ZM207.85 91.55C207.17 92.05 206.34 92.3 205.36 92.3C204.42 92.3 203.624 92.0467 202.97 91.54C202.317 91.0333 201.82 90.35 201.48 89.49C201.14 88.6233 200.97 87.6533 200.97 86.58C200.97 85.4933 201.14 84.52 201.48 83.66C201.82 82.8 202.324 82.1267 202.99 81.64C203.664 81.1467 204.49 80.9 205.47 80.9C206.41 80.9 207.214 81.15 207.88 81.65C208.554 82.15 209.067 82.83 209.42 83.69C209.774 84.55 209.95 85.5133 209.95 86.58C209.95 87.66 209.77 88.6333 209.41 89.5C209.057 90.36 208.537 91.0433 207.85 91.55ZM201.44 90.27C201.494 90.5567 201.52 90.89 201.52 91.27V92H200.47V77.6H201.62V82.33C201.62 82.6367 201.57 82.9233 201.47 83.19C201.377 83.4567 201.22 83.7967 201 84.21L201.27 84.24L201.62 83.5V84.05H201.52V89.41L201.3 88.88L201.03 88.91C201.15 89.2033 201.237 89.43 201.29 89.59C201.344 89.75 201.394 89.9767 201.44 90.27ZM203.11 90.6C203.65 91 204.324 91.2 205.13 91.2C205.924 91.2 206.584 90.9967 207.11 90.59C207.644 90.1833 208.044 89.6333 208.31 88.94C208.584 88.24 208.72 87.4533 208.72 86.58C208.72 85.7133 208.59 84.9367 208.33 84.25C208.07 83.5567 207.674 83.01 207.14 82.61C206.607 82.2033 205.93 82 205.11 82C204.317 82 203.654 82.1967 203.12 82.59C202.587 82.9767 202.187 83.5167 201.92 84.21C201.654 84.8967 201.52 85.6867 201.52 86.58C201.52 87.46 201.65 88.25 201.91 88.95C202.177 89.6433 202.577 90.1933 203.11 90.6ZM219.3 91.58C218.547 92.06 217.64 92.3 216.58 92.3C215.507 92.3 214.597 92.0567 213.85 91.57C213.103 91.0833 212.533 90.41 212.14 89.55C211.747 88.69 211.55 87.7 211.55 86.58C211.55 85.4467 211.75 84.4533 212.15 83.6C212.55 82.7467 213.123 82.0833 213.87 81.61C214.623 81.1367 215.527 80.9 216.58 80.9C217.653 80.9 218.563 81.1433 219.31 81.63C220.063 82.11 220.633 82.7767 221.02 83.63C221.413 84.4833 221.61 85.4667 221.61 86.58C221.61 87.72 221.413 88.72 221.02 89.58C220.627 90.4333 220.053 91.1 219.3 91.58ZM213.74 89.92C214.387 90.76 215.333 91.18 216.58 91.18C217.86 91.18 218.813 90.7533 219.44 89.9C220.067 89.0467 220.38 87.94 220.38 86.58C220.38 85.1933 220.063 84.0867 219.43 83.26C218.797 82.4333 217.847 82.02 216.58 82.02C215.72 82.02 215.01 82.2167 214.45 82.61C213.89 82.9967 213.47 83.5333 213.19 84.22C212.917 84.9 212.78 85.6867 212.78 86.58C212.78 87.9667 213.1 89.08 213.74 89.92ZM225.16 77.3V92H224.01V77.3H225.16ZM229.516 77.55V79.02H228.366V77.55H229.516ZM229.516 81.2V92H228.366V81.2H229.516ZM239.611 91.57C238.851 92.0567 237.958 92.3 236.931 92.3C235.851 92.3 234.941 92.06 234.201 91.58C233.461 91.0933 232.901 90.4233 232.521 89.57C232.141 88.71 231.941 87.72 231.921 86.6C231.941 85.4533 232.144 84.4533 232.531 83.6C232.918 82.7467 233.481 82.0833 234.221 81.61C234.961 81.1367 235.868 80.9 236.941 80.9C237.988 80.9 238.911 81.16 239.711 81.68C240.511 82.1933 241.061 82.9167 241.361 83.85L240.241 84.14C239.968 83.4667 239.538 82.9467 238.951 82.58C238.364 82.2067 237.691 82.02 236.931 82.02C236.078 82.02 235.374 82.2167 234.821 82.61C234.268 82.9967 233.854 83.5333 233.581 84.22C233.308 84.9067 233.164 85.7 233.151 86.6C233.171 87.98 233.494 89.09 234.121 89.93C234.754 90.7633 235.691 91.18 236.931 91.18C237.698 91.18 238.361 91.0033 238.921 90.65C239.488 90.2967 239.921 89.7833 240.221 89.11L241.361 89.41C240.961 90.3633 240.378 91.0833 239.611 91.57ZM248.895 85.54C248.928 85.6267 248.945 85.7233 248.945 85.83V92H247.795V77.6H248.945V83.78C248.945 84 248.875 84.17 248.735 84.29L248.895 84.45C249.035 84.31 249.218 84.24 249.445 84.24H256.745C256.885 84.2333 256.995 84.2467 257.075 84.28C257.161 84.3133 257.248 84.37 257.335 84.45L257.485 84.28C257.358 84.12 257.291 83.9333 257.285 83.72V77.6H258.445V92H257.285V85.9C257.285 85.7533 257.298 85.6367 257.325 85.55C257.351 85.4633 257.405 85.3833 257.485 85.31L257.325 85.14C257.238 85.2267 257.155 85.2867 257.075 85.32C256.995 85.3467 256.885 85.36 256.745 85.36H249.435C249.335 85.36 249.235 85.34 249.135 85.3C249.041 85.26 248.961 85.21 248.895 85.15L248.745 85.33C248.811 85.3767 248.861 85.4467 248.895 85.54ZM268.532 91.52C267.698 92.04 266.755 92.3 265.702 92.3C264.668 92.3 263.775 92.07 263.022 91.61C262.268 91.1433 261.685 90.4867 261.272 89.64C260.858 88.7867 260.652 87.78 260.652 86.62C260.652 85.44 260.855 84.4233 261.262 83.57C261.675 82.71 262.255 82.05 263.002 81.59C263.755 81.13 264.648 80.9 265.682 80.9C266.728 80.9 267.622 81.14 268.362 81.62C269.108 82.0933 269.675 82.78 270.062 83.68C270.455 84.58 270.642 85.6633 270.622 86.93H269.422V86.53C269.388 85.05 269.055 83.9233 268.422 83.15C267.788 82.3767 266.882 81.99 265.702 81.99C264.482 81.99 263.538 82.3933 262.872 83.2C262.212 84 261.882 85.1333 261.882 86.6C261.882 88.0533 262.212 89.18 262.872 89.98C263.538 90.78 264.475 91.18 265.682 91.18C266.515 91.18 267.242 90.9867 267.862 90.6C268.488 90.2067 268.985 89.6467 269.352 88.92L270.412 89.25C269.998 90.2367 269.372 90.9933 268.532 91.52ZM269.972 85.89V86.93H261.442V85.89H261.782L261.772 86.46H262.162C262.175 86.28 262.252 86.14 262.392 86.04C262.538 85.94 262.735 85.89 262.982 85.89H269.972ZM278.538 91.52C277.798 92.04 276.872 92.3 275.758 92.3C274.925 92.3 274.232 92.1533 273.678 91.86C273.132 91.5667 272.722 91.18 272.448 90.7C272.175 90.2133 272.038 89.6867 272.038 89.12C272.038 88.5067 272.165 87.9933 272.418 87.58C272.672 87.16 273.012 86.82 273.438 86.56C273.865 86.2933 274.342 86.0967 274.868 85.97C275.515 85.8233 276.185 85.7467 276.878 85.74C277.578 85.7333 278.222 85.73 278.808 85.73C279.402 85.73 279.898 85.73 280.298 85.73L279.868 85.86C279.902 84.4333 279.685 83.4367 279.218 82.87C278.752 82.2967 277.935 82.01 276.768 82.01C275.948 82.01 275.272 82.1967 274.738 82.57C274.212 82.9367 273.858 83.5033 273.678 84.27L272.448 84.07C272.648 83.0167 273.132 82.2267 273.898 81.7C274.672 81.1667 275.642 80.9 276.808 80.9C277.802 80.9 278.635 81.0933 279.308 81.48C279.988 81.8667 280.462 82.41 280.728 83.11C280.842 83.3967 280.918 83.7333 280.958 84.12C280.998 84.5 281.018 84.8833 281.018 85.27V92H279.968V91.48C279.968 91.0667 280.008 90.71 280.088 90.41C280.168 90.1033 280.278 89.7167 280.418 89.25L280.168 89.22C279.822 90.2333 279.278 91 278.538 91.52ZM274.278 90.92C274.658 91.1333 275.172 91.24 275.818 91.24C276.552 91.24 277.195 91.11 277.748 90.85C278.302 90.5833 278.748 90.2133 279.088 89.74C279.435 89.26 279.655 88.6967 279.748 88.05C279.822 87.69 279.858 87.3933 279.858 87.16C279.865 86.9267 279.868 86.7133 279.868 86.52L280.378 86.7C279.938 86.6933 279.415 86.6933 278.808 86.7C278.202 86.7 277.582 86.71 276.948 86.73C276.322 86.7433 275.755 86.82 275.248 86.96C274.935 87.0467 274.622 87.1767 274.308 87.35C273.995 87.5167 273.735 87.7467 273.528 88.04C273.322 88.3267 273.218 88.69 273.218 89.13C273.218 89.4567 273.298 89.7833 273.458 90.11C273.625 90.4367 273.898 90.7067 274.278 90.92ZM284.965 77.3V92H283.815V77.3H284.965ZM293.7 90.97V92.02C293.127 92.12 292.56 92.1567 292 92.13C291.44 92.1033 290.94 91.98 290.5 91.76C290.067 91.5333 289.74 91.19 289.52 90.73C289.34 90.35 289.24 89.9667 289.22 89.58C289.2 89.1933 289.19 88.75 289.19 88.25V78.2H290.35V82.25H289.65V82.53C289.904 82.53 290.084 82.58 290.19 82.68C290.297 82.7733 290.35 82.97 290.35 83.27V88.23C290.35 88.6833 290.354 89.06 290.36 89.36C290.374 89.6533 290.444 89.9233 290.57 90.17C290.81 90.6367 291.19 90.9167 291.71 91.01C292.23 91.0967 292.894 91.0833 293.7 90.97ZM293.7 81.2V82.32H286.77V81.2H293.7ZM304.833 86.09V92H303.673V86.38C303.673 85.6933 303.607 85.0833 303.473 84.55C303.34 84.0167 303.133 83.5667 302.853 83.2C302.573 82.8267 302.223 82.5433 301.803 82.35C301.39 82.1567 300.9 82.06 300.333 82.06C299.747 82.06 299.237 82.1633 298.803 82.37C298.377 82.57 298.023 82.8533 297.743 83.22C297.47 83.5867 297.263 84.0233 297.123 84.53C296.99 85.03 296.923 85.5767 296.923 86.17L296.333 86.06C296.6 84.6 296.873 83.5533 297.153 82.92C297.44 82.28 297.857 81.7933 298.403 81.46C298.95 81.12 299.643 80.95 300.483 80.95C301.077 80.95 301.607 81.0367 302.073 81.21C302.547 81.3833 302.957 81.63 303.303 81.95C303.65 82.2633 303.937 82.6367 304.163 83.07C304.39 83.4967 304.557 83.9667 304.663 84.48C304.777 84.9867 304.833 85.5233 304.833 86.09ZM296.923 84.34V92H295.763V77.6H296.813V82.57C296.813 82.8833 296.79 83.1633 296.743 83.41C296.697 83.65 296.617 83.96 296.503 84.34H296.923Z" fill="white"/>
<path d="M285.44 35.63C285.513 35.7567 285.55 35.92 285.55 36.12V41H284.4V26.6H289.83C289.97 26.6 290.12 26.6067 290.28 26.62C290.447 26.6267 290.62 26.6467 290.8 26.68C291.52 26.7933 292.137 27.0433 292.65 27.43C293.163 27.8167 293.557 28.3133 293.83 28.92C294.11 29.5267 294.25 30.1967 294.25 30.93C294.25 31.9433 294.043 32.7867 293.63 33.46C293.217 34.1267 292.53 34.5167 291.57 34.63L291.58 35.38H286.06C285.813 35.38 285.647 35.35 285.56 35.29C285.473 35.23 285.377 35.1567 285.27 35.07L285.13 35.25C285.27 35.37 285.373 35.4967 285.44 35.63ZM288.43 35.38V34.81C289.863 34.81 290.85 34.81 291.39 34.81C291.93 34.81 292.397 34.8367 292.79 34.89C293.183 34.9433 293.55 35.2133 293.89 35.7C294.13 36.0333 294.25 36.5467 294.25 37.24C294.25 37.9333 294.25 38.4233 294.25 38.71V41H293.1V38.7C293.1 37.8733 293.087 37.2733 293.06 36.9C293.033 36.5267 292.913 36.22 292.7 35.98C292.353 35.58 291.853 35.38 291.2 35.38C290.553 35.38 289.63 35.38 288.43 35.38ZM285.44 34.16C285.367 34.2733 285.26 34.3933 285.12 34.52L285.28 34.68C285.533 34.4 285.793 34.26 286.06 34.26H289.81C289.93 34.26 290.067 34.2533 290.22 34.24C290.38 34.2267 290.54 34.2067 290.7 34.18C291.22 34.0733 291.653 33.8633 292 33.55C292.347 33.23 292.607 32.8467 292.78 32.4C292.953 31.9533 293.04 31.4833 293.04 30.99C293.04 30.4967 292.953 30.03 292.78 29.59C292.607 29.1433 292.347 28.76 292 28.44C291.653 28.12 291.22 27.91 290.7 27.81C290.54 27.77 290.38 27.7467 290.22 27.74C290.067 27.7267 289.93 27.72 289.81 27.72H286.16C285.967 27.72 285.817 27.6933 285.71 27.64C285.61 27.58 285.487 27.4733 285.34 27.32L285.18 27.48C285.313 27.6133 285.407 27.74 285.46 27.86C285.52 27.98 285.55 28.1433 285.55 28.35V33.77C285.55 33.9167 285.513 34.0467 285.44 34.16ZM304.102 40.52C303.269 41.04 302.325 41.3 301.272 41.3C300.239 41.3 299.345 41.07 298.592 40.61C297.839 40.1433 297.255 39.4867 296.842 38.64C296.429 37.7867 296.222 36.78 296.222 35.62C296.222 34.44 296.425 33.4233 296.832 32.57C297.245 31.71 297.825 31.05 298.572 30.59C299.325 30.13 300.219 29.9 301.252 29.9C302.299 29.9 303.192 30.14 303.932 30.62C304.679 31.0933 305.245 31.78 305.632 32.68C306.025 33.58 306.212 34.6633 306.192 35.93H304.992V35.53C304.959 34.05 304.625 32.9233 303.992 32.15C303.359 31.3767 302.452 30.99 301.272 30.99C300.052 30.99 299.109 31.3933 298.442 32.2C297.782 33 297.452 34.1333 297.452 35.6C297.452 37.0533 297.782 38.18 298.442 38.98C299.109 39.78 300.045 40.18 301.252 40.18C302.085 40.18 302.812 39.9867 303.432 39.6C304.059 39.2067 304.555 38.6467 304.922 37.92L305.982 38.25C305.569 39.2367 304.942 39.9933 304.102 40.52ZM305.542 34.89V35.93H297.012V34.89H297.352L297.342 35.46H297.732C297.745 35.28 297.822 35.14 297.962 35.04C298.109 34.94 298.305 34.89 298.552 34.89H305.542ZM315.494 40.57C314.734 41.0567 313.841 41.3 312.814 41.3C311.734 41.3 310.824 41.06 310.084 40.58C309.344 40.0933 308.784 39.4233 308.404 38.57C308.024 37.71 307.824 36.72 307.804 35.6C307.824 34.4533 308.027 33.4533 308.414 32.6C308.801 31.7467 309.364 31.0833 310.104 30.61C310.844 30.1367 311.751 29.9 312.824 29.9C313.871 29.9 314.794 30.16 315.594 30.68C316.394 31.1933 316.944 31.9167 317.244 32.85L316.124 33.14C315.851 32.4667 315.421 31.9467 314.834 31.58C314.247 31.2067 313.574 31.02 312.814 31.02C311.961 31.02 311.257 31.2167 310.704 31.61C310.151 31.9967 309.737 32.5333 309.464 33.22C309.191 33.9067 309.047 34.7 309.034 35.6C309.054 36.98 309.377 38.09 310.004 38.93C310.637 39.7633 311.574 40.18 312.814 40.18C313.581 40.18 314.244 40.0033 314.804 39.65C315.371 39.2967 315.804 38.7833 316.104 38.11L317.244 38.41C316.844 39.3633 316.261 40.0833 315.494 40.57ZM326.198 40.58C325.445 41.06 324.538 41.3 323.478 41.3C322.405 41.3 321.495 41.0567 320.748 40.57C320.002 40.0833 319.432 39.41 319.038 38.55C318.645 37.69 318.448 36.7 318.448 35.58C318.448 34.4467 318.648 33.4533 319.048 32.6C319.448 31.7467 320.022 31.0833 320.768 30.61C321.522 30.1367 322.425 29.9 323.478 29.9C324.552 29.9 325.462 30.1433 326.208 30.63C326.962 31.11 327.532 31.7767 327.918 32.63C328.312 33.4833 328.508 34.4667 328.508 35.58C328.508 36.72 328.312 37.72 327.918 38.58C327.525 39.4333 326.952 40.1 326.198 40.58ZM320.638 38.92C321.285 39.76 322.232 40.18 323.478 40.18C324.758 40.18 325.712 39.7533 326.338 38.9C326.965 38.0467 327.278 36.94 327.278 35.58C327.278 34.1933 326.962 33.0867 326.328 32.26C325.695 31.4333 324.745 31.02 323.478 31.02C322.618 31.02 321.908 31.2167 321.348 31.61C320.788 31.9967 320.368 32.5333 320.088 33.22C319.815 33.9 319.678 34.6867 319.678 35.58C319.678 36.9667 319.998 38.08 320.638 38.92ZM338.378 30.2L334.458 41H333.238L329.318 30.2H330.508L333.558 38.62C333.638 38.8533 333.688 39.0733 333.708 39.28C333.728 39.4867 333.738 39.7333 333.738 40.02H333.968C333.975 39.66 333.985 39.39 333.998 39.21C334.018 39.0233 334.065 38.8267 334.138 38.62L337.178 30.2H338.378ZM347.071 40.52C346.237 41.04 345.294 41.3 344.241 41.3C343.207 41.3 342.314 41.07 341.561 40.61C340.807 40.1433 340.224 39.4867 339.811 38.64C339.397 37.7867 339.191 36.78 339.191 35.62C339.191 34.44 339.394 33.4233 339.801 32.57C340.214 31.71 340.794 31.05 341.541 30.59C342.294 30.13 343.187 29.9 344.221 29.9C345.267 29.9 346.161 30.14 346.901 30.62C347.647 31.0933 348.214 31.78 348.601 32.68C348.994 33.58 349.181 34.6633 349.161 35.93H347.961V35.53C347.927 34.05 347.594 32.9233 346.961 32.15C346.327 31.3767 345.421 30.99 344.241 30.99C343.021 30.99 342.077 31.3933 341.411 32.2C340.751 33 340.421 34.1333 340.421 35.6C340.421 37.0533 340.751 38.18 341.411 38.98C342.077 39.78 343.014 40.18 344.221 40.18C345.054 40.18 345.781 39.9867 346.401 39.6C347.027 39.2067 347.524 38.6467 347.891 37.92L348.951 38.25C348.537 39.2367 347.911 39.9933 347.071 40.52ZM348.511 34.89V35.93H339.981V34.89H340.321L340.311 35.46H340.701C340.714 35.28 340.791 35.14 340.931 35.04C341.077 34.94 341.274 34.89 341.521 34.89H348.511ZM352.533 35.52V41H351.373V30.2H352.423V30.74C352.423 31.4733 352.313 32.1567 352.093 32.79H352.323C352.489 32.1633 352.643 31.69 352.783 31.37C352.923 31.0433 353.143 30.7667 353.443 30.54C353.749 30.3067 354.216 30.19 354.843 30.19H356.433V31.28L354.803 31.27C354.069 31.27 353.506 31.54 353.113 32.08C352.719 32.74 352.526 33.8867 352.533 35.52ZM366.846 30.2L361.106 45.8H359.906L361.676 40.96L357.296 30.2H358.526L361.946 38.68C362.026 38.9067 362.076 39.1167 362.096 39.31C362.122 39.5033 362.136 39.7633 362.136 40.09H362.366C362.366 39.7633 362.376 39.5 362.396 39.3C362.422 39.1 362.476 38.89 362.556 38.67L365.636 30.2H366.846Z" fill="white"/>
<path d="M5 216C34.1667 154.167 133.9 25.4 299.5 5" stroke="white" stroke-width="2" stroke-linecap="round"/>
<circle cx="5" cy="216" r="5" fill="white"/>
<circle cx="68" cy="127" r="5" fill="white"/>
<circle cx="152" cy="57" r="5" fill="white"/>
<circle cx="300" cy="5" r="5" fill="white"/>
</svg>
